<svg width="42" height="41" viewBox="0 0 42 41" fill="none" xmlns="http://www.w3.org/2000/svg">
<path d="M18.9991 5.61379C10.6612 6.50332 4.60967 13.8555 5.48208 22.0353C6.35448 30.2151 13.9465 36.111 21.9352 35.2597C21.9352 35.2597 23.8144 34.9922 23.6102 33.08C23.4059 31.1679 21.4357 31.3194 21.4357 31.3194C15.7849 31.9217 10.1446 27.6071 9.5041 21.6057C8.86363 15.6043 13.3034 10.2104 19.4208 9.55806C22.3661 9.24441 24.5814 10.072 26.0719 10.897C26.7018 11.2462 28.2634 11.3543 28.8446 9.92046C29.4271 8.48666 28.2397 7.51542 27.8905 7.33883C27.5413 7.16224 24.0082 5.07875 18.9991 5.61247V5.61379Z" fill="#FB7411"/>
<path d="M41.6498 20.7478C41.8211 9.46451 32.6358 0.176432 21.1338 0.00247776C9.63172 -0.171476 0.172322 8.8359 0.00232219 20.1192C-0.167678 31.4025 9.01761 40.6905 20.5183 40.8645C21.537 40.8566 23.1224 40.8381 24.4666 40.5601C25.4483 40.3571 26.0848 39.1882 25.9267 38.3435C25.6289 36.2547 23.6152 36.6593 23.6152 36.6593C23.154 36.7278 22.4634 36.911 20.5776 36.882C11.3185 36.7423 3.92287 29.2649 4.05993 20.1798C4.19698 11.0947 11.814 3.84396 21.0745 3.98365C30.3335 4.12334 37.7292 11.6007 37.5922 20.6858C37.5065 26.3815 34.6877 30.7857 30.8422 33.6322C30.8422 33.6322 29.2872 34.8631 30.2545 36.4129C31.2218 37.9626 33.1076 36.9413 33.1076 36.9413C37.0558 34.0961 41.5285 28.7378 41.6498 20.7465V20.7478Z" fill="#FB7411"/>
<path d="M20.6621 11.0447C15.6662 11.0447 11.0234 14.9441 11.0234 20.6121C11.0234 26.2801 16.3633 29.9529 20.2773 29.8185C20.2773 29.8185 22.1987 29.8185 22.2527 27.8694C22.3067 25.9204 20.2773 25.9204 20.2773 25.9204C17.979 25.9204 15.3196 23.6142 15.3196 20.3842C15.3196 17.3729 17.7958 14.9455 20.7649 14.9455C23.7339 14.9455 26.2101 17.3808 26.2101 20.3842L26.2233 27.8694C26.2233 27.8694 26.3221 29.8185 28.1829 29.8185C30.0437 29.8185 30.1584 27.8694 30.1584 27.8694V20.5766C30.1584 14.8361 25.6593 11.046 20.6634 11.046L20.6621 11.0447Z" fill="#FB7411"/>
<path d="M18.9991 5.61379C10.6612 6.50332 4.60967 13.8555 5.48208 22.0353C6.35448 30.2151 13.9465 36.111 21.9352 35.2597C21.9352 35.2597 23.8144 34.9922 23.6102 33.08C23.4059 31.1679 21.4357 31.3194 21.4357 31.3194C15.7849 31.9217 10.1446 27.6071 9.5041 21.6057C8.86363 15.6043 13.3034 10.2104 19.4208 9.55806C22.3661 9.24441 24.5814 10.072 26.0719 10.897C26.7018 11.2462 28.2634 11.3543 28.8446 9.92046C29.4271 8.48666 28.2397 7.51542 27.8905 7.33883C27.5413 7.16224 24.0082 5.07875 18.9991 5.61247V5.61379Z" fill="url(#paint0_linear_2740_247)"/>
<path d="M41.6498 20.7478C41.8211 9.46451 32.6358 0.176432 21.1338 0.00247776C9.63172 -0.171476 0.172322 8.8359 0.00232219 20.1192C-0.167678 31.4025 9.01761 40.6905 20.5183 40.8645C21.537 40.8566 23.1224 40.8381 24.4666 40.5601C25.4483 40.3571 26.0848 39.1882 25.9267 38.3435C25.6289 36.2547 23.6152 36.6593 23.6152 36.6593C23.154 36.7278 22.4634 36.911 20.5776 36.882C11.3185 36.7423 3.92287 29.2649 4.05993 20.1798C4.19698 11.0947 11.814 3.84396 21.0745 3.98365C30.3335 4.12334 37.7292 11.6007 37.5922 20.6858C37.5065 26.3815 34.6877 30.7857 30.8422 33.6322C30.8422 33.6322 29.2872 34.8631 30.2545 36.4129C31.2218 37.9626 33.1076 36.9413 33.1076 36.9413C37.0558 34.0961 41.5285 28.7378 41.6498 20.7465V20.7478Z" fill="url(#paint1_linear_2740_247)"/>
<path d="M20.6621 11.0447C15.6662 11.0447 11.0234 14.9441 11.0234 20.6121C11.0234 26.2801 16.3633 29.9529 20.2773 29.8185C20.2773 29.8185 22.1987 29.8185 22.2527 27.8694C22.3067 25.9204 20.2773 25.9204 20.2773 25.9204C17.979 25.9204 15.3196 23.6142 15.3196 20.3842C15.3196 17.3729 17.7958 14.9455 20.7649 14.9455C23.7339 14.9455 26.2101 17.3808 26.2101 20.3842L26.2233 27.8694C26.2233 27.8694 26.3221 29.8185 28.1829 29.8185C30.0437 29.8185 30.1584 27.8694 30.1584 27.8694V20.5766C30.1584 14.8361 25.6593 11.046 20.6634 11.046L20.6621 11.0447Z" fill="url(#paint2_linear_2740_247)"/>
<defs>
<linearGradient id="paint0_linear_2740_247" x1="0.00121398" y1="20.4328" x2="41.6539" y2="20.4328" gradientUnits="userSpaceOnUse">
<stop stop-color="#F59D1B"/>
<stop offset="1" stop-color="#FC461B"/>
</linearGradient>
<linearGradient id="paint1_linear_2740_247" x1="-0.000313476" y1="20.4328" x2="41.6524" y2="20.4328" gradientUnits="userSpaceOnUse">
<stop stop-color="#F59D1B"/>
<stop offset="1" stop-color="#FC461B"/>
</linearGradient>
<linearGradient id="paint2_linear_2740_247" x1="-0.00286194" y1="20.4329" x2="41.6499" y2="20.4329" gradientUnits="userSpaceOnUse">
<stop stop-color="#F59D1B"/>
<stop offset="1" stop-color="#FC461B"/>
</linearGradient>
</defs>
</svg>
