<svg width="44" height="35" viewBox="0 0 44 35" fill="none" xmlns="http://www.w3.org/2000/svg">
<mask id="path-1-inside-1_102_1198" fill="white">
<path d="M29 7.5C29 11.6421 25.6421 15 21.5 15C17.3579 15 14 11.6421 14 7.5C14 3.35786 17.3579 0 21.5 0C25.6421 0 29 3.35786 29 7.5ZM15.8511 7.5C15.8511 10.6198 18.3802 13.1489 21.5 13.1489C24.6198 13.1489 27.1489 10.6198 27.1489 7.5C27.1489 4.38019 24.6198 1.85108 21.5 1.85108C18.3802 1.85108 15.8511 4.38019 15.8511 7.5Z"/>
</mask>
<path d="M29 7.5C29 11.6421 25.6421 15 21.5 15C17.3579 15 14 11.6421 14 7.5C14 3.35786 17.3579 0 21.5 0C25.6421 0 29 3.35786 29 7.5ZM15.8511 7.5C15.8511 10.6198 18.3802 13.1489 21.5 13.1489C24.6198 13.1489 27.1489 10.6198 27.1489 7.5C27.1489 4.38019 24.6198 1.85108 21.5 1.85108C18.3802 1.85108 15.8511 4.38019 15.8511 7.5Z" stroke="#D4D4D4" stroke-width="2" mask="url(#path-1-inside-1_102_1198)"/>
<path d="M13 26C13 22.134 16.134 19 20 19H24C27.866 19 31 22.134 31 26C31 27.6569 29.6569 29 28 29H16C14.3431 29 13 27.6569 13 26Z" stroke="#D4D4D4" stroke-width="2"/>
<path d="M28.4279 1.17883C28.3038 0.640649 28.6398 0.0971606 29.1892 0.0411894C29.9617 -0.0374979 30.7432 -0.00349637 31.5092 0.143649C32.6034 0.353843 33.6416 0.790279 34.5573 1.425C35.4731 2.05971 36.2461 2.87871 36.8269 3.82953C37.4078 4.78034 37.7836 5.842 37.9303 6.94649C38.0771 8.05097 37.9915 9.17393 37.679 10.2434C37.3666 11.3129 36.8342 12.3053 36.1159 13.1571C35.3977 14.0089 34.5094 14.7012 33.508 15.1898C32.8071 15.5319 32.0615 15.7687 31.2953 15.8944C30.7503 15.9839 30.2841 15.5469 30.2633 14.995C30.2425 14.4432 30.6764 13.9873 31.2172 13.8752C31.7055 13.7741 32.1806 13.6122 32.631 13.3924C33.3821 13.0259 34.0482 12.5067 34.5869 11.8678C35.1256 11.229 35.5249 10.4847 35.7593 9.68256C35.9936 8.88045 36.0578 8.03823 35.9477 7.20986C35.8377 6.3815 35.5558 5.58526 35.1202 4.87215C34.6846 4.15904 34.1048 3.54479 33.418 3.06875C32.7312 2.59271 31.9526 2.26538 31.1319 2.10774C30.6397 2.01318 30.1388 1.98092 29.6411 2.01074C29.0898 2.04378 28.5519 1.717 28.4279 1.17883Z" fill="#D4D4D4"/>
<path d="M13.8774 1.05521C13.9467 0.50728 13.5577 0.000354987 13.0054 -2.85615e-05C11.2376 -0.00125622 9.50845 0.583757 8.09683 1.67869C6.42031 2.9791 5.32905 4.89223 5.0631 6.99723C4.79714 9.10223 5.37829 11.2267 6.67869 12.9032C7.77363 14.3148 9.30297 15.3115 11.0155 15.75C11.5505 15.887 12.0533 15.4927 12.1226 14.9448C12.1918 14.3969 11.7996 13.9046 11.2708 13.7454C10.0841 13.3883 9.02853 12.6695 8.25902 11.6774C7.28372 10.42 6.84786 8.82667 7.04732 7.24792C7.24679 5.66917 8.06524 4.23432 9.32262 3.25902C10.3147 2.48951 11.5159 2.05581 12.7541 2.00502C13.3059 1.98238 13.8082 1.60314 13.8774 1.05521Z" fill="#D4D4D4"/>
<path d="M3.29785 28L3.63673 28.1634C5.4571 29.0413 7.45681 29.4971 9.48771 29.4971V29.4971" stroke="#D4D4D4" stroke-width="2" stroke-linecap="round"/>
<path d="M8.42726 18.3802C8.32493 17.8365 7.79725 17.4651 7.26712 17.6192C6.34924 17.886 5.48419 18.3025 4.71111 18.8525C3.66926 19.5936 2.82311 20.5568 2.23971 21.6657C1.65632 22.7746 1.35174 23.9987 1.3501 25.241C1.34891 26.1443 1.50793 27.0392 1.81799 27.8882C2.01266 28.4213 2.63679 28.63 3.1457 28.3888C3.67126 28.1397 3.87017 27.5069 3.69817 26.9472C3.52913 26.3971 3.44287 25.8251 3.44363 25.2485C3.44486 24.3168 3.6733 23.3988 4.11084 22.5671C4.54838 21.7354 5.183 21.013 5.96439 20.4572C6.47678 20.0927 7.04304 19.8063 7.64291 19.6066C8.16635 19.4322 8.52959 18.9239 8.42726 18.3802Z" fill="#D4D4D4"/>
<path d="M40.4058 28L40.0696 28.1699C38.3437 29.0425 36.4363 29.4971 34.5013 29.4971V29.4971" stroke="#D4D4D4" stroke-width="2" stroke-linecap="round"/>
<path d="M35.5133 18.3802C35.6109 17.8365 36.1338 17.468 36.6612 17.6319C37.5214 17.8992 38.3323 18.3112 39.0582 18.8525C40.052 19.5936 40.8591 20.5568 41.4156 21.6657C41.9721 22.7746 42.2627 23.9987 42.2642 25.241C42.2654 26.1492 42.112 27.0489 41.8131 27.902C41.6306 28.4229 41.024 28.6235 40.5301 28.3782C40.037 28.1332 39.8453 27.5361 40.0059 27.009C40.1794 26.44 40.268 25.8467 40.2672 25.2485C40.266 24.3168 40.0481 23.3988 39.6308 22.5671C39.2134 21.7354 38.608 21.013 37.8627 20.4572C37.3854 20.1013 36.8592 19.8199 36.302 19.6209C35.782 19.4351 35.4157 18.9239 35.5133 18.3802Z" fill="#D4D4D4"/>
</svg>
