<svg width="30" height="34" viewBox="0 0 30 34" fill="none" xmlns="http://www.w3.org/2000/svg">
<path d="M1.84255 18.043C1.10617 12.5695 4.9464 7.53537 10.4199 6.79899L16.1813 6.02389C21.6549 5.28751 26.689 9.12774 27.4254 14.6013L28.8674 25.3199C29.2356 28.0567 27.3155 30.5738 24.5787 30.942L8.9066 33.0504C6.16983 33.4186 3.65276 31.4985 3.28457 28.7617L1.84255 18.043Z" fill="#D4D4D4" fill-opacity="0.9"/>
<path d="M0.509216 8.13232L26.092 4.69056L28.8674 25.3199C29.2356 28.0567 27.3155 30.5738 24.5787 30.942L23.7727 31.0504C12.8256 32.5232 2.75734 24.8427 1.28458 13.8956L0.509216 8.13232Z" fill="#F4F4F4"/>
<rect width="3.97128" height="3.97157" rx="1.98564" transform="matrix(0.989334 -0.145666 0.145664 0.989334 13.3669 23.1594)" fill="#FF8B3D"/>
<rect width="3.97128" height="3.97157" rx="1.98564" transform="matrix(0.989334 -0.145666 0.145664 0.989334 18.9478 14.9265)" fill="#FF8B3D"/>
<rect width="3.97128" height="3.97157" rx="1.98564" transform="matrix(0.989334 -0.145666 0.145664 0.989334 12.2988 15.9058)" fill="#FF8B3D"/>
<path d="M0.509216 8.13232L26.092 4.69056L26.6604 8.91536C26.8077 10.0101 26.0396 11.0169 24.9449 11.1642L3.32641 14.0726C2.2317 14.2199 1.22487 13.4518 1.0776 12.3571L0.509216 8.13232Z" fill="#FF8B3D"/>
<rect x="3.48163" y="3.87866" width="3.97128" height="6.87388" rx="1.98564" transform="rotate(-7.66223 3.48163 3.87866)" fill="#F4F4F4"/>
<rect x="16.9543" y="2.06641" width="3.97128" height="6.87388" rx="1.98564" transform="rotate(-7.66223 16.9543 2.06641)" fill="#F4F4F4"/>
<rect width="3.97128" height="3.97157" rx="1.98564" transform="matrix(0.989334 -0.145666 0.145664 0.989334 5.49887 16.9067)" fill="#FF8B3D"/>
<rect width="3.97128" height="3.97157" rx="1.98564" transform="matrix(0.989334 -0.145666 0.145664 0.989334 20.0157 22.1799)" fill="#FF8B3D"/>
<path d="M6.66326 24.8153C6.61001 24.4536 6.86003 24.1172 7.2217 24.064L8.53129 23.8712C9.61623 23.7114 10.6252 24.4614 10.785 25.5464L10.9779 26.8563C11.0311 27.218 10.7811 27.5543 10.4194 27.6075C8.61121 27.8738 6.92949 26.6235 6.66326 24.8153Z" fill="#FF8B3D"/>
</svg>
