<svg width="27" height="27" viewBox="0 0 27 27" fill="none" xmlns="http://www.w3.org/2000/svg">
<rect x="0.5" y="0.5" width="26" height="26" rx="13" fill="#FF8B3D" stroke="#FF8B3D"/>
<path d="M12.3692 16.58L12.0092 7H14.2692L13.8892 16.58H12.3692ZM13.1492 21.12C12.7759 21.12 12.4626 20.9933 12.2092 20.74C11.9559 20.4867 11.8292 20.1867 11.8292 19.84C11.8292 19.4667 11.9559 19.16 12.2092 18.92C12.4626 18.68 12.7759 18.56 13.1492 18.56C13.5226 18.56 13.8292 18.68 14.0692 18.92C14.3092 19.16 14.4292 19.4667 14.4292 19.84C14.4292 20.1867 14.3092 20.4867 14.0692 20.74C13.8292 20.9933 13.5226 21.12 13.1492 21.12Z" fill="white"/>
</svg>
