<svg width="32" height="32" viewBox="0 0 32 32" fill="none" xmlns="http://www.w3.org/2000/svg">
<path d="M8.5 10.875C8.15625 10.875 7.875 11.1562 7.875 11.5V12.3633L14.6133 17.8945C15.4219 18.5586 16.582 18.5586 17.3906 17.8945L24.125 12.3633V11.5C24.125 11.1562 23.8438 10.875 23.5 10.875H8.5ZM7.875 14.7891V21.5C7.875 21.8438 8.15625 22.125 8.5 22.125H23.5C23.8438 22.125 24.125 21.8438 24.125 21.5V14.7891L18.5781 19.3438C17.0781 20.5742 14.918 20.5742 13.4219 19.3438L7.875 14.7891ZM6 11.5C6 10.1211 7.12109 9 8.5 9H23.5C24.8789 9 26 10.1211 26 11.5V21.5C26 22.8789 24.8789 24 23.5 24H8.5C7.12109 24 6 22.8789 6 21.5V11.5Z" fill="#FF8B3D"/>
<circle cx="16" cy="16" r="15" stroke="#FF8B3D" stroke-width="2"/>
</svg>
