<svg width="31" height="30" viewBox="0 0 31 30" fill="none" xmlns="http://www.w3.org/2000/svg">
<rect x="0.5" y="0.5" width="30" height="29" rx="7.5" stroke="#FF8B3D"/>
<path d="M17.0493 21.2423C17.2434 21.2423 17.4007 21.085 17.4007 20.8909C17.4007 20.6969 17.2434 20.5396 17.0493 20.5396C16.8553 20.5396 16.698 20.6969 16.698 20.8909C16.698 21.085 16.8553 21.2423 17.0493 21.2423Z" fill="#FF8B3D"/>
<path d="M24.8869 14.5395L15.7367 6.09318C15.6718 6.03326 15.5867 5.99999 15.4984 6C15.41 6.00001 15.325 6.03329 15.2601 6.09322L11.0763 9.9565V8.24239C11.0763 8.14921 11.0393 8.05983 10.9734 7.99394C10.9075 7.92804 10.8181 7.89103 10.7249 7.89103H10.0222C9.92903 7.89103 9.83964 7.92804 9.77375 7.99394C9.70786 8.05983 9.67085 8.14921 9.67085 8.24239V11.2543L6.113 14.5396C6.06107 14.5875 6.0248 14.65 6.00895 14.7189C5.9931 14.7878 5.99839 14.8598 6.02413 14.9257C6.04988 14.9915 6.09488 15.048 6.15326 15.0879C6.21163 15.1277 6.28069 15.1491 6.35137 15.1491H8.11276C8.20595 15.1491 8.29532 15.1861 8.36121 15.252C8.4271 15.3179 8.46412 15.4072 8.46412 15.5004V24.0701C8.46412 24.1633 8.50115 24.2527 8.56704 24.3186C8.63293 24.3845 8.7223 24.4215 8.81548 24.4215H22.1812C22.2744 24.4215 22.3638 24.3845 22.4297 24.3186C22.4956 24.2527 22.5326 24.1633 22.5326 24.0701V15.5004C22.5326 15.4072 22.5696 15.3179 22.6355 15.252C22.7014 15.1861 22.7908 15.1491 22.884 15.1491H24.6486C24.7193 15.1491 24.7884 15.1277 24.8467 15.0879C24.9051 15.048 24.9501 14.9915 24.9759 14.9256C25.0016 14.8598 25.0069 14.7877 24.991 14.7189C24.9752 14.65 24.9389 14.5875 24.8869 14.5395ZM13.5307 18.2376H17.466C17.5592 18.2376 17.6485 18.2746 17.7144 18.3405C17.7803 18.4064 17.8173 18.4957 17.8173 18.5889V23.7188H13.1794V18.5889C13.1794 18.4957 13.2164 18.4064 13.2823 18.3405C13.3482 18.2746 13.4376 18.2376 13.5307 18.2376Z" fill="#FF8B3D"/>
</svg>
