<svg xmlns="http://www.w3.org/2000/svg" width="16.238" height="18.451" viewBox="0 0 16.238 18.451"><g transform="translate(1.036 1.036)"><path d="M12.8,16.378H1.362A1.372,1.372,0,0,1,0,15.064V1.314A1.372,1.372,0,0,1,1.362,0H12.8a1.372,1.372,0,0,1,1.362,1.314V15.064A1.315,1.315,0,0,1,12.8,16.378Z" fill="none" stroke="#ff5200" stroke-width="2.073"/><path d="M2.073,1.036A1.036,1.036,0,1,1,1.036,0,1.036,1.036,0,0,1,2.073,1.036Z" transform="translate(3.201 4.797)" fill="#ff5200"/><path d="M0,0H4.249" transform="translate(6.381 5.781)" fill="none" stroke="#ff5200" stroke-width="2.073"/><path d="M2.073,1.036A1.036,1.036,0,1,1,1.036,0,1.036,1.036,0,0,1,2.073,1.036Z" transform="translate(3.201 9.509)" fill="#ff5200"/><path d="M0,0H4.249" transform="translate(6.381 10.598)" fill="none" stroke="#ff5200" stroke-width="2.073"/></g></svg>