<svg xmlns="http://www.w3.org/2000/svg" width="31.933" height="31.933" viewBox="0 0 31.933 31.933">
  <g id="Grupo_150" data-name="Grupo 150" transform="translate(-1661 -467.424)">
    <g id="calendar-Bold" transform="translate(1661 467.424)">
      <path id="calendar-Bold-2" data-name="calendar-Bold" d="M66.617,44.263a1.6,1.6,0,1,0-3.193,0h-9.58a1.6,1.6,0,1,0-3.193,0,7.993,7.993,0,0,0-7.983,7.983v14.37A7.993,7.993,0,0,0,50.65,74.6H66.617A7.993,7.993,0,0,0,74.6,66.616V52.246A7.993,7.993,0,0,0,66.617,44.263ZM50.65,47.456v1.6a1.6,1.6,0,1,0,3.193,0v-1.6h9.58v1.6a1.6,1.6,0,1,0,3.193,0v-1.6a4.8,4.8,0,0,1,4.79,4.79H45.86A4.8,4.8,0,0,1,50.65,47.456Zm15.967,23.95H50.65a4.8,4.8,0,0,1-4.79-4.79V55.439H71.407V66.616A4.8,4.8,0,0,1,66.617,71.406Z" transform="translate(-42.667 -42.666)" fill="#ff5200"/>
    </g>
    <g id="calendar-Bold-3" data-name="calendar-Bold" transform="translate(1668.983 483.39)">
      <path id="calendar-Bold-4" data-name="calendar-Bold" d="M64.278,55.551a1.6,1.6,0,1,1-1.6-1.6,1.6,1.6,0,0,1,1.6,1.6Zm-6.387,0a1.6,1.6,0,1,1-1.6-1.6A1.6,1.6,0,0,1,57.891,55.551Zm-6.387,0a1.6,1.6,0,1,1-1.6-1.6,1.6,1.6,0,0,1,1.6,1.6Zm12.773,6.387a1.6,1.6,0,1,1-1.6-1.6A1.6,1.6,0,0,1,64.278,61.937Zm-6.387,0a1.6,1.6,0,1,1-1.6-1.6,1.6,1.6,0,0,1,1.6,1.6Zm-6.387,0a1.6,1.6,0,1,1-1.6-1.6,1.6,1.6,0,0,1,1.6,1.6Z" transform="translate(-48.311 -53.954)" fill="#f7658b"/>
    </g>
  </g>
</svg>
