<svg xmlns="http://www.w3.org/2000/svg" width="36.8" height="24.28" viewBox="0 0 36.8 24.28"><rect width="34.8" height="22.28" rx="1.5" transform="translate(1 1)" fill="none" stroke="#e9541d" stroke-miterlimit="10" stroke-width="2"/><path d="M15.12,10.61a4.341,4.341,0,0,1,5.19-4.07,4.185,4.185,0,0,1-1,8.25,1,1,0,0,0,0,2,6.3,6.3,0,0,0,4.98-2.52,6.157,6.157,0,0,0-8.33-8.81,6.727,6.727,0,0,0-2.84,5.14c-.06,1.29,1.94,1.28,2,0h0Z" fill="#e9541d"/><path d="M14.47,13.92a.4.4,0,0,1-.69,0l-.97-1.67-.97-1.67a.4.4,0,0,1,.34-.59h3.86a.388.388,0,0,1,.34.59l-.97,1.67-.97,1.67Z" fill="#e9551e"/><rect width="5.16" height="2.21" rx="1.1" transform="translate(8.08 18.77)" fill="#e9541d"/><rect width="5.16" height="2.21" rx="1.1" transform="translate(15.81 18.77)" fill="#e9541d"/><rect width="5.16" height="2.21" rx="1.1" transform="translate(23.54 18.77)" fill="#e9541d"/><rect width="2.92" height="2.92" rx="1.06" transform="translate(27.546 7.496) rotate(-45)" fill="none" stroke="#f4a8a2" stroke-miterlimit="10" stroke-width="1"/><rect width="2.92" height="2.92" rx="1.06" transform="translate(5.98 6.04)" fill="none" stroke="#f4a8a2" stroke-miterlimit="10" stroke-width="0.75"/></svg>