<svg xmlns="http://www.w3.org/2000/svg" width="20.103" height="21.786" viewBox="0 0 20.103 21.786"><g transform="translate(0.84 0.84)"><path d="M0,2.525a2.525,2.525,0,1,1,5.05,0" transform="translate(4.115)" fill="none" stroke="#f3a8a2" stroke-width="1.68"/><path d="M0,2.525a2.525,2.525,0,0,1,5.05,0" transform="translate(9.165)" fill="none" stroke="#f3a8a2" stroke-width="1.68"/><path d="M0,0V16.553" transform="translate(9.165 3.273)" fill="none" stroke="#f3a8a2" stroke-width="1.68"/><path d="M16.179,16.833H2.244A2.276,2.276,0,0,1,0,14.589V2.244A2.276,2.276,0,0,1,2.244,0H16.179a2.276,2.276,0,0,1,2.244,2.244V14.589A2.276,2.276,0,0,1,16.179,16.833Z" transform="translate(0 3.273)" fill="none" stroke="#ff5200" stroke-width="1.68"/><path d="M0,0H18.329" transform="translate(0 9.352)" fill="none" stroke="#ff5200" stroke-width="1.68"/></g></svg>