<svg xmlns="http://www.w3.org/2000/svg" width="18.238" height="21.451" viewBox="0 0 18.238 21.451">
  <g id="Icon_24x_booking" data-name="Icon/24x/booking" transform="translate(1.036 1.036)">
    <path id="Vector" d="M14.611,19.378H1.554A1.594,1.594,0,0,1,0,17.824V1.554A1.594,1.594,0,0,1,1.554,0H14.611a1.594,1.594,0,0,1,1.554,1.554V17.824A1.526,1.526,0,0,1,14.611,19.378Z" fill="none" stroke="#b8b8d2" stroke-width="2.073"/>
    <path id="Vector-2" data-name="Vector" d="M2.073,1.036A1.036,1.036,0,1,1,1.036,0,1.036,1.036,0,0,1,2.073,1.036Z" transform="translate(3.731 5.803)" fill="#b8b8d2"/>
    <path id="Vector-3" data-name="Vector" d="M0,0H4.249" transform="translate(7.668 6.839)" fill="none" stroke="#b8b8d2" stroke-width="2.073"/>
    <path id="Vector-4" data-name="Vector" d="M2.073,1.036A1.036,1.036,0,1,1,1.036,0,1.036,1.036,0,0,1,2.073,1.036Z" transform="translate(3.731 11.503)" fill="#b8b8d2"/>
    <path id="Vector-5" data-name="Vector" d="M0,0H4.249" transform="translate(7.668 12.539)" fill="none" stroke="#b8b8d2" stroke-width="2.073"/>
  </g>
</svg>
