<svg xmlns="http://www.w3.org/2000/svg" width="24.03" height="28.027" viewBox="0 0 24.03 28.027"><g transform="translate(0 -0.003)"><rect width="15.98" height="15.98" rx="1.79" transform="translate(1 11.05)" fill="none" stroke="#e9541d" stroke-miterlimit="10" stroke-width="2"/><rect width="2.58" height="5.67" rx="0.97" transform="translate(7.7 17.5)" fill="#212e57"/><circle cx="2.58" cy="2.58" r="2.58" transform="translate(6.41 14.4)" fill="#212e57"/><rect width="2.09" height="4.08" rx="0.79" transform="translate(21.015 1.287) rotate(45)" fill="#e9541d"/><rect width="2.09" height="4.08" rx="0.79" transform="translate(22.498 11.3) rotate(135)" fill="#e9541d"/><rect width="2.09" height="4.08" rx="0.79" transform="translate(24.03 5.77) rotate(90)" fill="#e9541d"/><path d="M5.42,10.33c0-1.8-.26-3.81.53-5.36a4.343,4.343,0,0,1,2.87-2.4,4.488,4.488,0,0,1,1.86.03,3.752,3.752,0,0,1,1.64.77c-.11-.08.22.2.25.23a3.328,3.328,0,0,1,.36.39c-.05-.08-.04-.06.05.07.05.07.1.15.15.22a3.717,3.717,0,0,1,.27.48,4.861,4.861,0,0,1,.4,1.96,1.251,1.251,0,0,0,2.5,0A6.616,6.616,0,0,0,11.14.14,6.709,6.709,0,0,0,3.61,4.11c-.86,1.98-.68,4.11-.68,6.22a1.251,1.251,0,0,0,2.5,0h0Z" fill="#e9541d"/></g></svg>