<svg xmlns="http://www.w3.org/2000/svg" xmlns:xlink="http://www.w3.org/1999/xlink" width="25.899" height="32" viewBox="0 0 25.899 32"><defs><clipPath id="a"><rect width="25.899" height="32" fill="#ff5200"/></clipPath></defs><g clip-path="url(#a)"><path d="M.006,15.994q0-5.426,0-10.853A5.009,5.009,0,0,1,3.279.311,4.814,4.814,0,0,1,4.992,0Q10.16,0,15.327,0A4.865,4.865,0,0,1,18.776,1.37c1.84,1.737,3.664,3.493,5.5,5.239a4.987,4.987,0,0,1,1.623,3.749c0,5.531.014,11.063-.007,16.595a4.957,4.957,0,0,1-3.956,4.936A4.218,4.218,0,0,1,20.98,32q-8.032,0-16.066,0A4.961,4.961,0,0,1,.036,27.344C-.024,25.9.009,24.447.007,23q0-3.5,0-7m12.93,15c2.628,0,5.256.006,7.884,0a4.009,4.009,0,0,0,4.06-4.086q0-8.265,0-16.53c0-.221-.021-.44-.04-.661-.023-.275-.135-.339-.4-.338-1.9.01-3.8.006-5.7.005a3.383,3.383,0,0,1-.791-.058,2.394,2.394,0,0,1-1.862-2.488c-.006-1.692,0-3.385,0-5.078,0-.742,0-.752-.755-.752C11.892,1,8.447.991,5,1.01a4,4,0,0,0-3.98,4.029q0,10.97,0,21.94a3.734,3.734,0,0,0,.367,1.667,3.911,3.911,0,0,0,3.7,2.342c2.617.027,5.234.007,7.851.007" fill="#ff5200"/><path d="M12.94,26.962a7.237,7.237,0,1,1,7.23-7.145,7.208,7.208,0,0,1-7.23,7.145m-1.187-8.921a1.2,1.2,0,0,1,2.393-.079c.051.459.406.693.746.489a.588.588,0,0,0,.237-.672,2.143,2.143,0,0,0-1.425-1.8.35.35,0,0,1-.281-.4c.011-.369-.188-.585-.483-.579s-.477.212-.468.563a.377.377,0,0,1-.3.424,2.178,2.178,0,0,0-.885,3.47,2.456,2.456,0,0,0,1.826.792A1.153,1.153,0,0,1,14.146,21.5a1.2,1.2,0,0,1-2.391.024c-.045-.441-.326-.671-.676-.539-.325.122-.351.4-.308.69a2.154,2.154,0,0,0,1.412,1.809c.2.08.3.159.29.392-.011.393.161.574.48.572s.475-.18.472-.58a.328.328,0,0,1,.262-.376,2.183,2.183,0,0,0-.7-4.241,1.2,1.2,0,0,1-1.229-1.208" fill="#ff5200"/><path d="M8.584,8.274q-2.151,0-4.3,0a1.818,1.818,0,0,1-.361-.027.454.454,0,0,1-.391-.465.46.46,0,0,1,.351-.5,1.257,1.257,0,0,1,.358-.037q4.337,0,8.672,0a.966.966,0,0,1,.391.042.478.478,0,0,1,.326.517.445.445,0,0,1-.38.439,1.985,1.985,0,0,1-.393.03q-2.136,0-4.27,0" fill="#10285c"/><path d="M8.574,4.582h4.434c.411,0,.631.183.623.511s-.219.487-.614.487q-4.434,0-8.868,0c-.415,0-.629-.181-.622-.512.007-.316.218-.486.613-.487H8.574" fill="#10285c"/></g></svg>