<svg xmlns="http://www.w3.org/2000/svg" xmlns:xlink="http://www.w3.org/1999/xlink" width="32" height="32.104" viewBox="0 0 32 32.104"><defs><clipPath id="a"><rect width="32" height="32.104" transform="translate(0 0)" fill="#ff5200"/></clipPath></defs><g transform="translate(0 0)"><g clip-path="url(#a)"><path d="M14.421,9.662c0,1.023,0,2.046,0,3.07a1.637,1.637,0,0,1-1.733,1.738q-3.089.006-6.177,0a1.6,1.6,0,0,1-1.7-1.649q-.03-3.162,0-6.326A1.552,1.552,0,0,1,6.439,4.862q3.164-.031,6.326,0A1.6,1.6,0,0,1,14.42,6.592c0,1.024,0,2.047,0,3.07M9.6,11.258c.437,0,.874-.01,1.311,0,.218.008.305-.041.3-.284-.015-.874-.011-1.748,0-2.621,0-.2-.041-.291-.265-.288-.886.01-1.773.007-2.659,0-.185,0-.27.05-.268.253q.01,1.349,0,2.7c0,.213.093.246.272.242.437-.009.874,0,1.311,0" fill="#ff5200"/><path d="M22.361,14.47c-1,0-2,0-3,0A1.645,1.645,0,0,1,17.584,12.7q0-3.051,0-6.1A1.612,1.612,0,0,1,19.3,4.857q3.089-.02,6.177,0a1.589,1.589,0,0,1,1.718,1.7q.021,3.107,0,6.214a1.61,1.61,0,0,1-1.727,1.7c-1.035,0-2.071,0-3.107,0m.022-6.4c-.424,0-.849.01-1.273,0-.235-.008-.325.053-.32.31.017.861.013,1.723,0,2.584,0,.219.042.305.285.3.873-.015,1.747-.011,2.621,0,.2,0,.29-.041.288-.265q-.016-1.329,0-2.659c0-.224-.093-.272-.291-.268-.437.01-.874,0-1.311,0" fill="#ff5200"/><path d="M14.421,22.472c0,1.011,0,2.022,0,3.032a1.609,1.609,0,0,1-1.685,1.741q-3.126.025-6.252,0A1.57,1.57,0,0,1,4.81,25.578q-.025-3.126,0-6.252a1.606,1.606,0,0,1,1.732-1.692q3.071,0,6.14,0a1.635,1.635,0,0,1,1.739,1.731c0,1.036,0,2.072,0,3.107m-3.213-.014c0-.449-.006-.9,0-1.348,0-.178-.026-.271-.24-.268q-1.347.015-2.7,0c-.2,0-.256.069-.255.259q.01,1.329,0,2.659c0,.217.08.277.286.275.873-.008,1.747-.011,2.621,0,.24,0,.3-.083.287-.3-.016-.424-.005-.849-.005-1.273" fill="#ff5200"/><path d="M31.994,6.163c0,.624.017,1.248,0,1.871a1.6,1.6,0,0,1-3.127.528,2.19,2.19,0,0,1-.085-.7c0-.936,0-1.872,0-2.808a1.6,1.6,0,0,0-1.784-1.774c-.961,0-1.922.007-2.882,0a1.594,1.594,0,0,1-1.686-1.29,1.525,1.525,0,0,1,1.2-1.86,16.462,16.462,0,0,1,4.734.094,4.738,4.738,0,0,1,3.639,4.709c.008.411,0,.823,0,1.235Z" fill="#ff5200"/><path d="M.007,6.238A9.874,9.874,0,0,1,.218,3.454,4.8,4.8,0,0,1,4.755.069C5.827.032,6.9.045,7.974.065A1.611,1.611,0,0,1,9.616,1.5,1.626,1.626,0,0,1,8.522,3.187a2.22,2.22,0,0,1-.738.09c-.935,0-1.871,0-2.807,0A1.586,1.586,0,0,0,3.23,5.014c-.007.986.008,1.972-.005,2.957a1.585,1.585,0,0,1-1.28,1.657,1.579,1.579,0,0,1-1.9-1.3c-.094-.72-.012-1.446-.04-2.1" fill="#ff5200"/><path d="M.034,25.905c0-.686-.036-1.374.009-2.057A1.564,1.564,0,0,1,1.5,22.433a1.63,1.63,0,0,1,1.658,1.14,2.414,2.414,0,0,1,.073.7c0,.936-.006,1.872,0,2.808a1.586,1.586,0,0,0,1.742,1.739c.973.007,1.947,0,2.92,0A1.6,1.6,0,0,1,9.58,30.116a1.524,1.524,0,0,1-1.195,1.861,15.964,15.964,0,0,1-4.767-.1A4.716,4.716,0,0,1,.012,27.215c-.011-.436,0-.873,0-1.31H.034" fill="#ff5200"/><path d="M31.969,25.925a9.4,9.4,0,0,1-.123,2.5,4.794,4.794,0,0,1-4.622,3.617c-1.059.033-2.12.021-3.181,0a1.6,1.6,0,0,1-.574-3.117,2.173,2.173,0,0,1,.737-.1c.936,0,1.872,0,2.808,0a1.591,1.591,0,0,0,1.761-1.76c.006-.986-.015-1.972.007-2.957a1.6,1.6,0,0,1,2.38-1.466,1.414,1.414,0,0,1,.8,1.189c.032.7.009,1.4.009,2.094" fill="#ff5200"/><path d="M20.815,20.826c-1,.007-2,.011-2.992.023-.174,0-.243-.047-.243-.231q.01-1.366,0-2.733c0-.2.076-.256.264-.254.9.007,1.8.01,2.695,0,.232,0,.261.1.26.29,0,.973,0,1.946,0,2.919l.012-.012" fill="#10285c"/><path d="M20.83,24.112c-.065-1.095-.033-2.19-.016-3.286l-.01.012c.965,0,1.93,0,2.895.011.121,0,.247-.041.362.031l-.006,0A21.181,21.181,0,0,0,24.01,23c-.014.335.138.766-.058.979-.217.237-.66.062-1,.079-.707.037-1.417-.052-2.123.049Z" fill="#10285c"/><path d="M24.062,20.88c-.1-.085-.078-.2-.078-.313,0-.874.006-1.747-.006-2.621,0-.245.077-.321.323-.318q1.292.021,2.583,0c.247,0,.325.076.321.32-.011.861-.015,1.722,0,2.583.006.28-.105.32-.349.321-.935,0-1.87-.042-2.8.023l.007,0" fill="#10285c"/><path d="M20.826,24.1c-.068.921-.027,1.843-.02,2.765,0,.321-.1.395-.4.387-.836-.02-1.672-.014-2.508,0-.244,0-.323-.074-.319-.321.013-.861.006-1.722,0-2.583,0-.171-.012-.322.239-.32.948.008,1.9,0,2.844.009.055,0,.109.047.164.072l0-.006" fill="#10285c"/></g></g></svg>