<svg xmlns="http://www.w3.org/2000/svg" xmlns:xlink="http://www.w3.org/1999/xlink" width="32" height="32" viewBox="0 0 32 32"><defs><clipPath id="a"><rect width="32" height="32" fill="#ff5200"/></clipPath></defs><g clip-path="url(#a)"><path d="M17.125,0,18.88.253c.082.012.163.032.244.051a.636.636,0,0,1,.554.762.66.66,0,0,1-.824.474A16.356,16.356,0,0,0,16.969,1.3a13.863,13.863,0,0,0-6.38,1A14.345,14.345,0,0,0,1.737,12.35a14.36,14.36,0,0,0,2.474,12.5.26.26,0,0,0,.376.108,2.524,2.524,0,0,1,2.791.458,2.626,2.626,0,0,1-1.4,4.556,2.479,2.479,0,0,1-2.5-1.092A2.5,2.5,0,0,1,3.3,26.17a.389.389,0,0,0-.03-.488,16.006,16.006,0,0,1-3.19-8.008A1.3,1.3,0,0,0,0,17.125V14.813c.068-.491.123-.984.208-1.472A15.723,15.723,0,0,1,4.272,5.112,15.757,15.757,0,0,1,13.556.178,9.638,9.638,0,0,0,14.812,0ZM7,27.365a1.373,1.373,0,1,0-1.365,1.381A1.392,1.392,0,0,0,7,27.365" fill="#ff5200"/><path d="M14.875,32l-1.754-.253a2.533,2.533,0,0,1-.275-.058.627.627,0,0,1-.5-.714.636.636,0,0,1,.763-.52,16.768,16.768,0,0,0,1.947.249,14.291,14.291,0,0,0,8.634-2.142,14.291,14.291,0,0,0,6.576-8.908,14.475,14.475,0,0,0-2.477-12.5.259.259,0,0,0-.375-.111,2.522,2.522,0,0,1-2.791-.456,2.476,2.476,0,0,1-.769-2.694,2.622,2.622,0,0,1,4.642-.8A2.5,2.5,0,0,1,28.715,5.8a.457.457,0,0,0,.058.566,15.814,15.814,0,0,1,3.169,8.273c.007.081-.006.168.058.236v2.25c-.069.513-.122,1.028-.21,1.538a15.726,15.726,0,0,1-4.115,8.283,15.661,15.661,0,0,1-8.826,4.8c-.572.1-1.149.169-1.724.252Zm11.5-26a1.4,1.4,0,0,0,1.366-1.38A1.373,1.373,0,1,0,26.379,6" fill="#ff5200"/><path d="M4.625,15.979c0-.625,0-1.25,0-1.874a.619.619,0,0,1,.665-.694c.312-.013.625-.009.937,0a.242.242,0,0,0,.284-.209,8.864,8.864,0,0,1,.811-1.952.223.223,0,0,0-.045-.322c-.22-.207-.431-.423-.642-.64A.63.63,0,0,1,6.628,9.28q1.32-1.331,2.651-2.651a.63.63,0,0,1,1.007,0c.209.2.421.4.616.62a.255.255,0,0,0,.373.062,8.492,8.492,0,0,1,1.923-.8.26.26,0,0,0,.221-.309c-.01-.3-.011-.6,0-.905a.611.611,0,0,1,.685-.67q1.89,0,3.78,0a.611.611,0,0,1,.695.66c.012.312.01.625,0,.937a.244.244,0,0,0,.212.284,8.594,8.594,0,0,1,1.923.8.255.255,0,0,0,.375-.048c.2-.225.42-.434.638-.643A.618.618,0,0,1,22.69,6.6q1.354,1.34,2.7,2.694a.619.619,0,0,1,.006.963c-.207.22-.419.436-.641.64a.253.253,0,0,0-.066.371,8.6,8.6,0,0,1,.8,1.923.256.256,0,0,0,.309.218q.437-.012.875,0a.629.629,0,0,1,.706.716q0,1.875,0,3.749a.616.616,0,0,1-.686.7c-.3.009-.6.011-.906,0-.177-.007-.249.057-.3.231a8.835,8.835,0,0,1-.8,1.922.237.237,0,0,0,.047.347c.238.218.465.448.685.684a.6.6,0,0,1,0,.917q-1.359,1.379-2.739,2.739a.6.6,0,0,1-.917-.006c-.236-.22-.462-.451-.685-.684a.218.218,0,0,0-.317-.059,8.927,8.927,0,0,1-1.979.823.228.228,0,0,0-.2.263c.006.312.009.625,0,.937a.618.618,0,0,1-.7.687q-1.89,0-3.78,0a.6.6,0,0,1-.678-.644c-.013-.312-.01-.625,0-.937,0-.164-.028-.259-.215-.311a8.965,8.965,0,0,1-1.952-.812.219.219,0,0,0-.319.047q-.331.353-.684.685a.61.61,0,0,1-.94,0q-1.366-1.35-2.717-2.717a.61.61,0,0,1,.009-.939c.215-.226.435-.449.663-.662a.238.238,0,0,0,.059-.345,8.742,8.742,0,0,1-.811-1.951.243.243,0,0,0-.284-.21c-.322.007-.646.009-.968,0a.6.6,0,0,1-.633-.654c-.005-.646,0-1.291,0-1.937m4.228-5.006a.823.823,0,0,1-.122.373,8.975,8.975,0,0,0-1.16,2.775.646.646,0,0,1-.715.558c-.26.005-.521.007-.781,0-.141,0-.2.033-.2.19.006.75.008,1.5,0,2.25,0,.179.076.2.224.2.26-.007.521,0,.781,0a.621.621,0,0,1,.691.54,9.252,9.252,0,0,0,1.156,2.777.623.623,0,0,1-.106.874c-.18.189-.36.378-.554.55-.137.122-.119.2.005.318.521.51,1.039,1.024,1.544,1.549.141.148.217.126.339-.009.18-.2.375-.391.573-.575a.608.608,0,0,1,.8-.091,9.391,9.391,0,0,0,2.832,1.182.618.618,0,0,1,.525.673c.006.271.01.542,0,.813-.007.165.051.213.214.211q1.109-.01,2.218,0c.17,0,.215-.059.208-.217-.01-.249,0-.5,0-.75a.657.657,0,0,1,.59-.751,8.976,8.976,0,0,0,2.72-1.133.627.627,0,0,1,.9.109c.195.187.388.378.573.576.092.1.151.1.248,0q.8-.814,1.612-1.614c.109-.107.1-.172,0-.273-.206-.191-.405-.391-.6-.6a.6.6,0,0,1-.095-.823,9.339,9.339,0,0,0,1.176-2.835.607.607,0,0,1,.656-.505,6.684,6.684,0,0,1,.749,0c.248.024.29-.076.286-.3q-.021-1.031,0-2.062c0-.211-.042-.3-.271-.283a6.7,6.7,0,0,1-.75,0,.627.627,0,0,1-.673-.528,9.3,9.3,0,0,0-1.167-2.807.613.613,0,0,1,.1-.849c.186-.2.375-.392.576-.573.127-.114.107-.184-.006-.293-.382-.369-.753-.75-1.13-1.123-.192-.19-.378-.506-.588-.525s-.386.333-.586.512c-.039.035-.073.074-.111.11a.646.646,0,0,1-.9.1,9.025,9.025,0,0,0-2.781-1.148.623.623,0,0,1-.522-.645c-.009-.281-.008-.563,0-.844,0-.147-.043-.2-.194-.2q-1.125.009-2.25,0c-.151,0-.2.05-.195.2.009.281.008.563,0,.844a.616.616,0,0,1-.492.64,9.3,9.3,0,0,0-2.865,1.185.609.609,0,0,1-.8-.093c-.2-.187-.392-.376-.574-.575-.114-.125-.188-.145-.319-.01-.515.53-1.04,1.051-1.568,1.568-.112.109-.133.179-.006.293.2.181.385.381.577.572a.752.752,0,0,1,.22.48" fill="#10285c"/><path d="M21.742,1.117a.6.6,0,0,1,.635.617.62.62,0,0,1-.625.636.638.638,0,0,1-.624-.611.613.613,0,0,1,.614-.642" fill="#ff5200"/><path d="M10.286,29.636a.642.642,0,0,1,.612.658.624.624,0,0,1-.658.6.639.639,0,0,1-.6-.633.663.663,0,0,1,.65-.628" fill="#ff5200"/><path d="M16.02,10.822a5.178,5.178,0,1,1-5.2,5.142,5.208,5.208,0,0,1,5.2-5.142M19.9,15.99A3.9,3.9,0,1,0,16,19.9a3.886,3.886,0,0,0,3.9-3.909" fill="#ff5200"/></g></svg>