<svg xmlns="http://www.w3.org/2000/svg" width="27.101" height="27.157" viewBox="0 0 27.101 27.157"><g transform="translate(0.808 1.346)"><path d="M8.51,8.4,0,0" transform="translate(0 0.052)" fill="none" stroke="#10285c" stroke-width="2.3"/><path d="M6.21,0l3.8,3.795a1.747,1.747,0,0,1,0,2.3L8.05,8.05a1.747,1.747,0,0,1-2.3,0L0,2.3" transform="translate(14.564 16.036)" fill="none" stroke="#10285c" stroke-width="2.3"/><path d="M23.589,4.288,20.717,7.15a2.566,2.566,0,0,1-3.555,0,2.546,2.546,0,0,1,0-3.544L20.033.743a7.526,7.526,0,0,0-8.478,1.363A8.014,8.014,0,0,0,9.641,9.74L1.026,18.329a3.448,3.448,0,0,0,0,4.908,3.474,3.474,0,0,0,4.923,0l8.615-8.588a7.682,7.682,0,0,0,7.521-1.772A7.491,7.491,0,0,0,23.589,4.288Z" transform="translate(0.633)" fill="none" stroke="#ff5200" stroke-width="2.3"/></g></svg>