<svg xmlns="http://www.w3.org/2000/svg" width="13.51" height="14.511" viewBox="0 0 13.51 14.511"><g transform="translate(0.679 0.679)"><path d="M5.906,13.154h.339a7.7,7.7,0,0,0,4.549-4.209,16.654,16.654,0,0,0,1.358-5.839.554.554,0,0,0-.543-.611A8.52,8.52,0,0,1,8.554,1.68,8.054,8.054,0,0,1,6.653.255.78.78,0,0,0,5.5.255,10.763,10.763,0,0,1,3.6,1.612a7.607,7.607,0,0,1-3.055.883A.554.554,0,0,0,0,3.106,18.346,18.346,0,0,0,1.358,8.944,7.88,7.88,0,0,0,5.906,13.154Z" fill="none" stroke="#ff5200" stroke-width="1.358"/><path d="M5.906,0,2.172,3.123,0,1.29" transform="translate(3.395 4.735)" fill="none" stroke="#f3a8a2" stroke-width="1.358"/></g></svg>