<svg xmlns="http://www.w3.org/2000/svg" width="23.933" height="21.07" viewBox="0 0 23.933 21.07"><g transform="translate(0.84 0.84)"><path d="M5.609,0A3.061,3.061,0,0,1,2.575,3.034H0" transform="translate(12.598 15.08)" fill="none" stroke="#f3a8a2" stroke-width="1.68"/><path d="M4.046,2.023A2.023,2.023,0,1,1,2.023,0,2.023,2.023,0,0,1,4.046,2.023Z" transform="translate(9.839 16.184)" fill="#f3a8a2"/><path d="M3.954,6.437a3.954,3.954,0,0,0,0,7.908V7.172a7.172,7.172,0,1,1,14.345,0v7.172a3.925,3.925,0,0,0,3.954-3.954,4,4,0,0,0-4.046-3.954" fill="none" stroke="#ff5200" stroke-width="1.68"/></g></svg>