<svg xmlns="http://www.w3.org/2000/svg" xmlns:xlink="http://www.w3.org/1999/xlink" width="27.182" height="32" viewBox="0 0 27.182 32"><defs><clipPath id="a"><rect width="27.182" height="32" fill="#ff5200"/></clipPath></defs><g clip-path="url(#a)"><path d="M27.179,15.995q0,6.663,0,13.327a2.527,2.527,0,0,1-1,2.185,2.706,2.706,0,0,1-1.7.468c-5.7,0-11.406-.042-17.108.025a4.3,4.3,0,0,1-3.618-1.51c-.911-1.055-1.953-2-2.951-2.976A2.6,2.6,0,0,1,0,25.574Q0,14.063,0,2.551A2.39,2.39,0,0,1,2.567,0Q13.592,0,24.617,0A2.4,2.4,0,0,1,27.178,2.63q.006,6.682,0,13.365m-1.608-.025q0-6.663,0-13.327c0-.731-.294-1.032-1.011-1.032H2.624c-.72,0-1.014.3-1.014,1.028q0,2.865,0,5.728,0,8.01-.006,16.021c0,.285.061.383.365.376.91-.021,1.822-.011,2.732-.007a2.433,2.433,0,0,1,2.517,2.531c0,.886.017,1.772-.008,2.657-.01.344.088.428.429.428q8.423-.018,16.845-.009c.818,0,1.088-.275,1.088-1.106V15.97M2.155,26.39l3.429,3.433c0-.849.009-1.771,0-2.692a.73.73,0,0,0-.739-.737c-.921-.013-1.843,0-2.686,0" fill="#ff5200"/><path d="M13.589,3.191h6.177c.731,0,1.011.286,1.012,1.021V6.2c0,.734-.283,1.021-1.012,1.022H7.413C6.685,7.217,6.4,6.93,6.4,6.2q0-1.011,0-2.021c0-.681.3-.983.974-.983q3.106,0,6.213,0m-.038,2.4c1.758,0,3.516-.007,5.275.007.291,0,.369-.09.348-.36-.017-.225.043-.423-.327-.421q-5.256.022-10.512,0c-.317,0-.331.138-.33.38s0,.406.346.4c1.733-.02,3.467-.009,5.2-.009" fill="#ff5200"/><path d="M20.578,16.8c-.3,0-.6,0-.9,0-.273,0-.481.079-.474.389s.223.371.49.38a6.26,6.26,0,0,1,1.34.053,1.977,1.977,0,0,1,1.545,1.909,1.954,1.954,0,0,1-1.49,1.985c-.265.065-.347.175-.317.428a2.72,2.72,0,0,1,0,.486.786.786,0,0,1-.748.742.761.761,0,0,1-.825-.649,3.959,3.959,0,0,1-.03-.671c0-.188-.052-.28-.254-.261a4.023,4.023,0,0,1-.411,0,.822.822,0,1,1-.015-1.629c.573-.007,1.147-.009,1.72,0,.294.005.557-.048.551-.394s-.281-.379-.567-.378a4.459,4.459,0,0,1-1-.047,2.022,2.022,0,0,1-1.619-1.818,1.993,1.993,0,0,1,1.275-2c.253-.094.35-.209.328-.474a2.582,2.582,0,0,1,.03-.633.766.766,0,0,1,.842-.629.793.793,0,0,1,.728.724c.024.27-.111.616.057.794s.52.034.789.066a.811.811,0,0,1,.753.827.8.8,0,0,1-.786.792c-.336.02-.673,0-1.01,0Z" fill="#10285c"/><path d="M9.581,23.175q-2.768,0-5.536,0a.788.788,0,0,1-.823-.619.812.812,0,0,1,.369-.867.993.993,0,0,1,.54-.119q5.461,0,10.922,0a.836.836,0,0,1,.907.572.813.813,0,0,1-.314.892.908.908,0,0,1-.567.143q-2.748,0-5.5,0" fill="#ff5200"/><path d="M13.591,9.614H10.6c-.625,0-1-.3-1-.805s.367-.825.983-.825q3.029,0,6.055,0c.617,0,.991.364.941.9a.809.809,0,0,1-.883.731c-1.034.007-2.068,0-3.1,0" fill="#ff5200"/><path d="M6.785,15.987c-.9,0-1.8,0-2.693,0a.8.8,0,1,1-.045-1.6q2.75-.02,5.5,0a.8.8,0,1,1-.029,1.6c-.911,0-1.821,0-2.731,0" fill="#ff5200"/><path d="M5.984,20.779c-.648,0-1.3,0-1.943,0a.811.811,0,0,1-.846-.768.79.79,0,0,1,.789-.823q2.016-.03,4.034,0a.756.756,0,0,1,.779.821.787.787,0,0,1-.833.77c-.66.005-1.32,0-1.98,0" fill="#ff5200"/><path d="M5.176,18.382c-.385,0-.771.007-1.156,0a.809.809,0,0,1-.824-.75.781.781,0,0,1,.731-.833,21.206,21.206,0,0,1,2.571,0,.785.785,0,0,1,.716.813.815.815,0,0,1-.807.769H5.176" fill="#ff5200"/><path d="M14.4,27.165c0,.262.011.524,0,.785a.811.811,0,1,1-1.622-.01c-.016-.51-.015-1.021,0-1.532a.8.8,0,0,1,.816-.835.809.809,0,0,1,.809.845c.009.248,0,.5,0,.747" fill="#ff5200"/><path d="M15.172,27.12c0-.249-.012-.5,0-.747a.81.81,0,0,1,1.62.005c.019.522.017,1.046,0,1.569a.811.811,0,1,1-1.622-.005c-.013-.273,0-.548,0-.822" fill="#ff5200"/><path d="M17.569,27.15c0-.262-.013-.524,0-.785a.8.8,0,0,1,.82-.792.787.787,0,0,1,.8.776c.023.547.023,1.1,0,1.643a.817.817,0,0,1-.8.788.83.83,0,0,1-.819-.808c-.017-.273,0-.548,0-.822" fill="#ff5200"/><path d="M19.964,27.164c0-.262-.012-.524,0-.785a.81.81,0,0,1,1.62-.007c.02.522.017,1.046,0,1.569a.812.812,0,1,1-1.623.008c-.013-.261,0-.523,0-.785" fill="#ff5200"/><path d="M22.361,27.147c0-.262-.014-.524,0-.785a.8.8,0,0,1,.824-.789.787.787,0,0,1,.793.779c.023.548.023,1.1,0,1.644a.816.816,0,0,1-.8.784.83.83,0,0,1-.815-.811c-.016-.273,0-.548,0-.822" fill="#ff5200"/><path d="M4.024,11.2a.8.8,0,1,1-.831.778.809.809,0,0,1,.831-.778" fill="#ff5200"/><path d="M13.6,11.2a.8.8,0,1,1-.03,1.6.8.8,0,1,1,.03-1.6" fill="#ff5200"/><path d="M23.131,12.79a.8.8,0,1,1,.855-.754.814.814,0,0,1-.855.754" fill="#ff5200"/><path d="M11.193,12a.8.8,0,1,1-.8-.8.785.785,0,0,1,.8.8" fill="#ff5200"/><path d="M20.777,12.011a.8.8,0,1,1-.788-.815.785.785,0,0,1,.788.815" fill="#ff5200"/><path d="M7.2,12.792a.8.8,0,1,1,.8-.806.79.79,0,0,1-.8.806" fill="#ff5200"/><path d="M17.584,12a.8.8,0,1,1-.8-.8.789.789,0,0,1,.8.8" fill="#ff5200"/></g></svg>