<svg xmlns="http://www.w3.org/2000/svg" width="32" height="25.133" viewBox="0 0 32 25.133">
  <g id="wi-fi" transform="translate(0 0)">
    <path id="Caminho_196" data-name="Caminho 196" d="M27.246,66.068a14.935,14.935,0,0,0-22.445,0,2.692,2.692,0,0,1-3.991,0,3.341,3.341,0,0,1,0-4.362,20.191,20.191,0,0,1,30.38,0,3.341,3.341,0,0,1,0,4.362A2.639,2.639,0,0,1,27.246,66.068Z" transform="translate(0.001 -54.817)" fill="#ff5200" fill-rule="evenodd"/>
    <path id="Caminho_197" data-name="Caminho 197" d="M114.93,205.8a5.876,5.876,0,0,0-9.22,0,2.428,2.428,0,0,1-3.75,0,3.506,3.506,0,0,1,0-4.362,10.684,10.684,0,0,1,16.675,0,3.506,3.506,0,0,1,0,4.362A2.32,2.32,0,0,1,114.93,205.8Z" transform="translate(-94.272 -188.925)" fill="#ff5200" fill-rule="evenodd"/>
    <path id="Caminho_198" data-name="Caminho 198" d="M203.3,340.222a4.105,4.105,0,1,1-4.105-4.105A4.117,4.117,0,0,1,203.3,340.222Z" transform="translate(-183.22 -319.194)" fill="#f7658b"/>
  </g>
</svg>
