<svg width="99" height="99" viewBox="0 0 99 99" fill="none" xmlns="http://www.w3.org/2000/svg">
<path d="M98.7574 49.7617C98.7574 76.7379 76.8889 98.6065 49.9128 98.6065C22.9367 98.6065 1.06826 76.7379 1.06826 49.7617C1.06826 22.7855 22.9367 0.916895 49.9128 0.916895C76.8889 0.916895 98.7574 22.7855 98.7574 49.7617Z" fill="white" stroke="black" stroke-width="0.2"/>
<path d="M84.8077 35.0713L84.4437 34.9468L87.7851 24.7938C88.2979 23.2354 88.1816 21.5334 87.4618 20.0623C86.742 18.5912 85.4776 17.4714 83.9467 16.9493L83.9465 16.9492L62.8162 9.74384C61.2854 9.22175 59.6135 9.34011 58.1684 10.0729C56.7233 10.8057 55.6233 12.0929 55.1105 13.6513L55.1104 13.6516L36.7819 69.3512C36.5279 70.1229 36.4258 70.9379 36.4812 71.7497C36.5367 72.5616 36.7487 73.3543 37.1051 74.0828C37.4615 74.8112 37.9554 75.461 38.5585 75.9952C39.1616 76.5293 39.8622 76.9373 40.6202 77.1958L40.6204 77.1959L61.7502 84.4016C63.281 84.9236 64.9529 84.8052 66.398 84.0724C67.843 83.3396 68.943 82.0524 69.4558 80.494L82.0653 42.1743L82.4294 42.2984L84.8077 35.0713Z" fill="#3F3D56"/>
<path d="M83.9363 18.9383L81.1906 18.0123C81.2132 18.3665 81.1489 18.7209 81.0033 19.0443C80.8578 19.3676 80.6355 19.6499 80.3561 19.8664C80.0767 20.0829 79.7486 20.2268 79.4009 20.2856C79.0532 20.3444 78.6965 20.3162 78.3621 20.2035L66.3118 16.1394C65.9775 16.0265 65.6759 15.8327 65.4336 15.5749C65.1913 15.317 65.0157 15.0032 64.9222 14.661C64.8287 14.3187 64.8202 13.9586 64.8975 13.6123C64.9749 13.266 65.1356 12.9441 65.3655 12.6751L62.801 11.8102C61.6629 11.4264 60.42 11.5134 59.3456 12.0522C58.2713 12.591 57.4535 13.5374 57.0722 14.6832L38.8523 69.4393C38.471 70.5851 38.5575 71.8365 39.0927 72.9181C39.6279 73.9997 40.5679 74.823 41.706 75.2069L62.842 82.3351C63.9801 82.7189 65.2231 82.6319 66.2974 82.0931C67.3718 81.5543 68.1895 80.6079 68.5708 79.4621L86.7903 24.7059C87.1715 23.56 87.085 22.3087 86.5498 21.227C86.0146 20.1454 85.0745 19.3221 83.9363 18.9383Z" fill="white"/>
<path d="M79.0379 37.3685L55.0728 29.8382C54.9551 29.8011 54.858 29.7218 54.8027 29.6176C54.7474 29.5134 54.7384 29.3929 54.7776 29.2825L56.7691 23.7062C56.8087 23.5958 56.8933 23.5047 57.0043 23.4528C57.1154 23.4009 57.2439 23.3925 57.3616 23.4293L81.3269 30.9597C81.4445 30.9968 81.5417 31.0761 81.597 31.1803C81.6523 31.2845 81.6613 31.405 81.6221 31.5154L79.6306 37.0915C79.591 37.2019 79.5064 37.293 79.3954 37.3449C79.2843 37.3968 79.1558 37.4052 79.0381 37.3684L79.0379 37.3685ZM57.3021 23.596C57.2315 23.5739 57.1544 23.579 57.0877 23.6102C57.0211 23.6413 56.9704 23.696 56.9466 23.7622L54.9552 29.3383C54.9316 29.4046 54.937 29.4769 54.9702 29.5394C55.0034 29.6019 55.0617 29.6495 55.1323 29.6717L79.0975 37.202C79.1681 37.2241 79.2452 37.2191 79.3119 37.1879C79.3785 37.1568 79.4292 37.1021 79.453 37.0359L81.4447 31.4601C81.4683 31.3938 81.4629 31.3215 81.4297 31.259C81.3965 31.1965 81.3382 31.1489 81.2676 31.1267L57.3021 23.596Z" fill="#3F3D56"/>
<path d="M70.9822 59.9576L47.5359 52.1728C47.4209 52.1344 47.3258 52.0524 47.2717 51.9447C47.2176 51.837 47.2088 51.7124 47.2472 51.5982L50.8536 40.9277C50.8923 40.8137 50.9751 40.7195 51.0837 40.6658C51.1924 40.6122 51.3181 40.6034 51.4332 40.6415L74.8796 48.4262C74.9947 48.4645 75.0897 48.5466 75.1439 48.6543C75.198 48.762 75.2068 48.8866 75.1684 49.0007L71.5618 59.6714C71.5231 59.7855 71.4403 59.8796 71.3317 59.9333C71.2231 59.9869 71.0974 59.9957 70.9822 59.9576ZM51.375 40.8136C51.3059 40.7907 51.2305 40.796 51.1653 40.8282C51.1001 40.8604 51.0505 40.9169 51.0273 40.9853L47.4209 51.6558C47.3978 51.7243 47.4031 51.7991 47.4356 51.8637C47.4681 51.9283 47.5251 51.9775 47.5942 52.0005L71.0406 59.7855C71.1097 59.8083 71.1851 59.8031 71.2503 59.7709C71.3155 59.7387 71.3651 59.6821 71.3883 59.6137L74.9949 48.943C75.018 48.8745 75.0127 48.7998 74.9802 48.7351C74.9477 48.6705 74.8907 48.6213 74.8216 48.5983L51.375 40.8136Z" fill="#3F3D56"/>
<path d="M75.9394 45.9744L65.8141 42.6681C65.7023 42.6314 65.6099 42.5531 65.5573 42.4502C65.5048 42.3472 65.4962 42.2282 65.5335 42.1192L67.4267 36.6112C67.4643 36.5022 67.5448 36.4122 67.6503 36.361C67.7559 36.3097 67.8781 36.3014 67.99 36.3378L78.1156 39.644C78.2274 39.6806 78.3197 39.759 78.3723 39.8619C78.4249 39.9648 78.4335 40.0838 78.3962 40.1929L76.503 45.7009C76.4655 45.8099 76.385 45.9 76.2793 45.9513C76.1736 46.0026 76.0514 46.0109 75.9394 45.9744ZM67.9334 36.5026C67.8663 36.4808 67.793 36.4858 67.7296 36.5165C67.6663 36.5473 67.618 36.6013 67.5955 36.6667L65.7024 42.1747C65.68 42.2401 65.6851 42.3115 65.7167 42.3733C65.7483 42.435 65.8037 42.482 65.8708 42.504L75.9964 45.8098C76.0635 45.8317 76.1368 45.8266 76.2002 45.7959C76.2635 45.7651 76.3117 45.7111 76.3343 45.6457L78.2275 40.1378C78.2499 40.0723 78.2448 40.0009 78.2132 39.9392C78.1816 39.8774 78.1262 39.8304 78.0591 39.8084L67.9334 36.5026Z" fill="#E6E6E6"/>
<path d="M52.9456 68.5652L43.2125 65.366C43.105 65.3306 43.0163 65.2547 42.9657 65.1551C42.9151 65.0555 42.9069 64.9403 42.9428 64.8348L46.3386 54.8888C46.3747 54.7833 46.452 54.6962 46.5535 54.6466C46.655 54.597 46.7724 54.5889 46.88 54.6241L56.6132 57.8233C56.7207 57.8587 56.8095 57.9346 56.86 58.0342C56.9106 58.1338 56.9188 58.249 56.8829 58.3545L53.487 68.3006C53.4508 68.406 53.3735 68.4931 53.272 68.5427C53.1705 68.5923 53.0531 68.6004 52.9456 68.5652ZM46.8253 54.7832C46.7608 54.7621 46.6903 54.7669 46.6294 54.7967C46.5685 54.8265 46.5222 54.8787 46.5005 54.942L43.1046 64.8881C43.0831 64.9514 43.0881 65.0205 43.1184 65.0803C43.1487 65.14 43.202 65.1855 43.2665 65.2068L52.9999 68.406C53.0645 68.4271 53.1349 68.4223 53.1958 68.3925C53.2567 68.3627 53.3031 68.3105 53.3248 68.2472L56.7205 58.3011C56.742 58.2378 56.7371 58.1687 56.7068 58.109C56.6764 58.0492 56.6231 58.0037 56.5587 57.9824L46.8253 54.7832Z" fill="#E6E6E6"/>
<path d="M65.5497 73.9403L55.0677 70.2489C54.9519 70.208 54.8564 70.1205 54.8019 70.0056C54.7475 69.8907 54.7386 69.7578 54.7773 69.636L58.4342 58.1598C58.4731 58.0382 58.5563 57.9377 58.6656 57.8804C58.7749 57.8232 58.9014 57.8139 59.0172 57.8545L69.4993 61.5459C69.615 61.5868 69.7106 61.6743 69.765 61.7893C69.8195 61.9042 69.8283 62.0371 69.7897 62.1589L66.1328 73.6349C66.0939 73.7566 66.0106 73.8571 65.9013 73.9144C65.792 73.9716 65.6656 73.9809 65.5497 73.9403ZM58.9588 58.0382C58.8893 58.0138 58.8134 58.0194 58.7478 58.0537C58.6822 58.0881 58.6323 58.1484 58.609 58.2214L54.952 69.6976C54.9288 69.7706 54.9341 69.8504 54.9668 69.9193C54.9994 69.9882 55.0568 70.0407 55.1262 70.0653L65.6083 73.7568C65.6778 73.7811 65.7536 73.7755 65.8192 73.7412C65.8848 73.7068 65.9347 73.6465 65.9581 73.5735L69.615 62.0974C69.6382 62.0243 69.6329 61.9446 69.6002 61.8756C69.5675 61.8067 69.5101 61.7542 69.4407 61.7297L58.9588 58.0382Z" fill="#E6E6E6"/>
<path d="M54.2157 47.0723C55.1069 47.0723 55.8293 46.3499 55.8293 45.4588C55.8293 44.5676 55.1069 43.8452 54.2157 43.8452C53.3246 43.8452 52.6022 44.5676 52.6022 45.4588C52.6022 46.3499 53.3246 47.0723 54.2157 47.0723Z" fill="#F86E32"/>
<path d="M58.3752 44.9373C58.2999 44.9106 58.2176 44.9167 58.1465 44.9541C58.0754 44.9916 58.0213 45.0574 57.9961 45.1371C57.9709 45.2168 57.9766 45.3038 58.012 45.3791C58.0474 45.4543 58.1096 45.5115 58.1849 45.5382L71.5702 50.283C71.6075 50.2963 71.6468 50.3016 71.6861 50.2987C71.7253 50.2958 71.7636 50.2848 71.7988 50.2662C71.834 50.2477 71.8654 50.2219 71.8912 50.1906C71.917 50.1592 71.9367 50.1227 71.9492 50.0832C71.9617 50.0438 71.9668 50.0021 71.964 49.9606C71.9613 49.9191 71.9509 49.8785 71.9333 49.8413C71.9158 49.804 71.8915 49.7708 71.8618 49.7435C71.8322 49.7162 71.7977 49.6953 71.7604 49.6821L58.3752 44.9373Z" fill="#E6E6E6"/>
<path d="M57.3722 47.0926C57.328 47.0766 57.2814 47.0702 57.2349 47.0737C57.1885 47.0772 57.1431 47.0905 57.1014 47.1128C57.0597 47.1352 57.0225 47.1662 56.992 47.2041C56.9614 47.242 56.9381 47.286 56.9233 47.3335C56.9085 47.3811 56.9025 47.4314 56.9058 47.4815C56.909 47.5315 56.9213 47.5804 56.9421 47.6254C56.9629 47.6703 56.9916 47.7104 57.0268 47.7433C57.0619 47.7763 57.1027 47.8014 57.1469 47.8174L63.9676 50.2801C64.0117 50.296 64.0584 50.3024 64.1048 50.299C64.1513 50.2955 64.1967 50.2822 64.2383 50.2598C64.28 50.2374 64.3172 50.2064 64.3478 50.1685C64.3783 50.1307 64.4017 50.0867 64.4165 50.0391C64.4313 49.9915 64.4372 49.9412 64.434 49.8912C64.4308 49.8411 64.4184 49.7922 64.3976 49.7473C64.3769 49.7023 64.3481 49.6623 64.313 49.6293C64.2778 49.5964 64.237 49.5712 64.1929 49.5553L57.3722 47.0926Z" fill="#E6E6E6"/>
<path d="M51.9991 48.1803C51.7942 48.1003 51.587 48.1761 51.5372 48.3495C51.4874 48.523 51.6137 48.7284 51.8187 48.8084L69.3406 55.6465C69.5455 55.7265 69.7527 55.6508 69.8025 55.4773C69.8523 55.3038 69.726 55.0984 69.521 55.0184L51.9991 48.1803Z" fill="#E6E6E6"/>
<path d="M50.9512 50.3271C50.7342 50.2586 50.5148 50.3235 50.4622 50.4722C50.4095 50.6209 50.5432 50.797 50.7602 50.8655L69.3128 56.7268C69.5298 56.7953 69.7492 56.7304 69.8019 56.5817C69.8546 56.433 69.7208 56.2569 69.5039 56.1884L50.9512 50.3271Z" fill="#E6E6E6"/>
<path d="M60.132 28.7857C61.3202 28.7857 62.2834 28.0633 62.2834 27.1722C62.2834 26.281 61.3202 25.5586 60.132 25.5586C58.9438 25.5586 57.9806 26.281 57.9806 27.1722C57.9806 28.0633 58.9438 28.7857 60.132 28.7857Z" fill="#F86E32"/>
<path d="M64.8294 26.6507C64.7921 26.6375 64.7527 26.6322 64.7135 26.635C64.6743 26.6379 64.636 26.649 64.6008 26.6675C64.5656 26.6861 64.5342 26.7118 64.5083 26.7432C64.4825 26.7746 64.4628 26.811 64.4503 26.8505C64.4378 26.8899 64.4328 26.9316 64.4355 26.9731C64.4383 27.0146 64.4487 27.0552 64.4662 27.0924C64.4838 27.1297 64.5081 27.1629 64.5377 27.1902C64.5674 27.2175 64.6019 27.2384 64.6391 27.2516L78.0244 31.9964C78.0617 32.0096 78.1011 32.0149 78.1403 32.0121C78.1795 32.0092 78.2178 31.9981 78.253 31.9796C78.2882 31.961 78.3196 31.9353 78.3454 31.9039C78.3713 31.8725 78.391 31.8361 78.4035 31.7966C78.416 31.7572 78.421 31.7155 78.4182 31.674C78.4155 31.6325 78.4051 31.5919 78.3876 31.5547C78.37 31.5174 78.3457 31.4842 78.3161 31.4569C78.2864 31.4296 78.2519 31.4087 78.2147 31.3955L64.8294 26.6507Z" fill="#E6E6E6"/>
<path d="M63.7596 28.7988C63.7218 28.7882 63.6818 28.7839 63.642 28.7863C63.6022 28.7886 63.5633 28.7975 63.5276 28.8124C63.4918 28.8273 63.46 28.848 63.4338 28.8732C63.4076 28.8985 63.3876 28.9278 63.3749 28.9595C63.3622 28.9912 63.3571 29.0247 63.3599 29.0581C63.3626 29.0915 63.3732 29.1241 63.391 29.1541C63.4088 29.184 63.4335 29.2107 63.4636 29.2327C63.4937 29.2547 63.5287 29.2714 63.5665 29.2821L69.4129 30.9239C69.4507 30.9345 69.4907 30.9388 69.5305 30.9365C69.5703 30.9341 69.6092 30.9253 69.6449 30.9103C69.6807 30.8954 69.7125 30.8747 69.7387 30.8495C69.7649 30.8243 69.7849 30.7949 69.7976 30.7632C69.8103 30.7315 69.8154 30.698 69.8126 30.6646C69.8099 30.6312 69.7993 30.5986 69.7815 30.5687C69.7637 30.5387 69.739 30.512 69.7089 30.49C69.6788 30.4681 69.6438 30.4513 69.606 30.4407L63.7596 28.7988Z" fill="#E6E6E6"/>
<path d="M63.3592 41.694L53.6779 38.5277L57.2782 35.42C57.3427 35.3643 57.4211 35.3262 57.5055 35.3094C57.5899 35.2926 57.6774 35.2979 57.759 35.3246C57.8407 35.3513 57.9138 35.3985 57.9708 35.4615C58.0279 35.5246 58.0669 35.6011 58.084 35.6835L58.4926 37.6477L61.1077 35.3901C61.1885 35.3204 61.2867 35.2727 61.3924 35.2517C61.498 35.2308 61.6075 35.2374 61.7098 35.2708C61.812 35.3043 61.9034 35.3634 61.9748 35.4423C62.0463 35.5211 62.0952 35.617 62.1166 35.7201L63.3592 41.694ZM54.0334 38.4572L63.1189 41.4287L61.9388 35.7558C61.9237 35.6831 61.8892 35.6156 61.8389 35.56C61.7885 35.5045 61.7241 35.4628 61.6521 35.4393C61.58 35.4157 61.5029 35.4111 61.4284 35.4258C61.354 35.4406 61.2848 35.4742 61.2279 35.5233L58.3774 37.9837L57.9062 35.7189C57.8955 35.667 57.8708 35.6187 57.8349 35.579C57.7989 35.5393 57.7529 35.5095 57.7014 35.4927C57.65 35.4758 57.5949 35.4725 57.5417 35.4831C57.4885 35.4936 57.4391 35.5177 57.3984 35.5528L54.0334 38.4572Z" fill="#E6E6E6"/>
<path d="M63.0313 41.6693L52.9056 37.9959C52.7938 37.9552 52.7015 37.8681 52.6489 37.7538C52.5963 37.6394 52.5877 37.5072 52.6251 37.386L54.5182 31.2657C54.5558 31.1446 54.6362 31.0446 54.7418 30.9876C54.8474 30.9307 54.9695 30.9214 55.0814 30.9618L65.2072 34.6353C65.319 34.676 65.4113 34.7631 65.4639 34.8774C65.5165 34.9918 65.5251 35.1241 65.4877 35.2453L63.5945 41.3655C63.5569 41.4866 63.4765 41.5865 63.3709 41.6435C63.2653 41.7005 63.1432 41.7097 63.0313 41.6693ZM55.025 31.1445C54.9578 31.1202 54.8845 31.1258 54.8212 31.16C54.7578 31.1942 54.7096 31.2542 54.6871 31.3268L52.7939 37.4471C52.7715 37.5198 52.7767 37.5992 52.8082 37.6678C52.8398 37.7364 52.8952 37.7887 52.9623 37.8131L63.088 41.4865C63.1552 41.5108 63.2285 41.5052 63.2918 41.471C63.3552 41.4369 63.4034 41.3769 63.4259 41.3042L65.3191 35.1839C65.3416 35.1112 65.3364 35.0318 65.3048 34.9632C65.2733 34.8946 65.2179 34.8424 65.1508 34.8179L55.025 31.1445Z" fill="#E6E6E6"/>
<path d="M48.6334 56.7739C48.6018 56.7578 48.5685 56.7514 48.5353 56.7548C48.5021 56.7582 48.4696 56.7715 48.4398 56.7939C48.41 56.8163 48.3834 56.8473 48.3616 56.8852C48.3397 56.9231 48.323 56.9671 48.3124 57.0147C48.3019 57.0623 48.2976 57.1126 48.2999 57.1628C48.3023 57.2129 48.3111 57.2618 48.326 57.3067C48.3408 57.3517 48.3614 57.3918 48.3865 57.4247C48.4117 57.4577 48.4409 57.4828 48.4725 57.4987L53.3444 59.9614C53.4081 59.9934 53.4776 59.986 53.5376 59.9408C53.5977 59.8956 53.6434 59.8163 53.6647 59.7202C53.686 59.6242 53.6812 59.5193 53.6513 59.4286C53.6215 59.338 53.5689 59.2689 53.5053 59.2366L48.6334 56.7739Z" fill="#E6E6E6"/>
<path d="M47.6245 58.9252C47.5867 58.9092 47.5467 58.9027 47.5068 58.9062C47.4669 58.9096 47.428 58.9229 47.3922 58.9453C47.3565 58.9676 47.3246 58.9986 47.2983 59.0365C47.2721 59.0744 47.2521 59.1184 47.2394 59.166C47.2267 59.2137 47.2216 59.264 47.2244 59.3141C47.2272 59.3642 47.2378 59.4131 47.2556 59.4581C47.2734 59.503 47.2981 59.5431 47.3283 59.576C47.3585 59.609 47.3935 59.6341 47.4314 59.65L53.2782 62.113C53.3545 62.1448 53.4378 62.1373 53.5098 62.0921C53.5818 62.0468 53.6366 61.9676 53.6621 61.8716C53.6877 61.7757 53.6819 61.6709 53.6462 61.5803C53.6104 61.4897 53.5475 61.4206 53.4713 61.3882L47.6245 58.9252Z" fill="#E6E6E6"/>
<path d="M65.0436 70.7252C65.1328 70.7466 65.2301 70.7417 65.3142 70.7115C65.3983 70.6814 65.4623 70.6285 65.4922 70.5645C65.522 70.5004 65.5153 70.4305 65.4734 70.37C65.4316 70.3096 65.358 70.2635 65.269 70.242L58.4475 68.6C58.3583 68.5786 58.261 68.5836 58.1769 68.6137C58.0928 68.6439 58.0288 68.6968 57.999 68.7608C57.9691 68.8248 57.9758 68.8947 58.0177 68.9552C58.0595 69.0157 58.1331 69.0617 58.2221 69.0833L65.0436 70.7252Z" fill="#E6E6E6"/>
<path d="M65.1098 68.5737C65.1476 68.5843 65.1876 68.5887 65.2275 68.5864C65.2673 68.5841 65.3063 68.5752 65.342 68.5603C65.3778 68.5454 65.4097 68.5247 65.4359 68.4995C65.4622 68.4742 65.4822 68.4449 65.4949 68.4131C65.5076 68.3814 65.5127 68.3478 65.5099 68.3144C65.5071 68.281 65.4965 68.2484 65.4787 68.2184C65.4608 68.1885 65.4361 68.1618 65.406 68.1398C65.3758 68.1178 65.3408 68.1011 65.3029 68.0905L59.4572 66.4489C59.4194 66.4382 59.3794 66.4339 59.3395 66.4361C59.2997 66.4384 59.2608 66.4473 59.225 66.4622C59.1892 66.4771 59.1573 66.4978 59.1311 66.523C59.1049 66.5483 59.0848 66.5776 59.0721 66.6094C59.0595 66.6411 59.0544 66.6747 59.0571 66.7081C59.0599 66.7415 59.0705 66.7741 59.0884 66.8041C59.1062 66.834 59.1309 66.8608 59.1611 66.8827C59.1912 66.9047 59.2263 66.9214 59.2641 66.932L65.1098 68.5737Z" fill="#E6E6E6"/>
<path d="M74.7243 41.674C74.7684 41.69 74.8151 41.6965 74.8616 41.693C74.9081 41.6896 74.9535 41.6763 74.9952 41.654C75.037 41.6316 75.0742 41.6006 75.1048 41.5627C75.1354 41.5248 75.1588 41.4808 75.1736 41.4332C75.1884 41.3855 75.1943 41.3352 75.1911 41.2851C75.1878 41.235 75.1754 41.1861 75.1546 41.1411C75.1338 41.0962 75.105 41.0561 75.0698 41.0232C75.0346 40.9903 74.9938 40.9651 74.9496 40.9492L68.1296 38.4867C68.0855 38.4707 68.0388 38.4643 67.9923 38.4677C67.9458 38.4711 67.9004 38.4844 67.8587 38.5068C67.8169 38.5291 67.7797 38.5602 67.7491 38.598C67.7185 38.6359 67.6952 38.6799 67.6804 38.7276C67.6656 38.7752 67.6596 38.8255 67.6628 38.8756C67.6661 38.9257 67.6785 38.9746 67.6993 39.0196C67.7201 39.0645 67.7489 39.1046 67.7841 39.1375C67.8193 39.1705 67.8602 39.1956 67.9044 39.2115L74.7243 41.674Z" fill="#E6E6E6"/>
<path d="M73.7154 42.7563C73.7532 42.767 73.7932 42.7713 73.8331 42.769C73.8729 42.7667 73.9119 42.7578 73.9476 42.7429C73.9834 42.728 74.0153 42.7073 74.0415 42.6821C74.0678 42.6568 74.0878 42.6275 74.1005 42.5957C74.1132 42.564 74.1183 42.5305 74.1155 42.497C74.1127 42.4636 74.1021 42.431 74.0842 42.4011C74.0664 42.3711 74.0417 42.3444 74.0115 42.3224C73.9814 42.3005 73.9464 42.2837 73.9085 42.2731L68.0628 40.6315C68.025 40.6208 67.985 40.6165 67.9451 40.6188C67.9053 40.6211 67.8663 40.6299 67.8306 40.6448C67.7948 40.6597 67.7629 40.6804 67.7367 40.7057C67.7104 40.7309 67.6904 40.7603 67.6777 40.792C67.665 40.8238 67.6599 40.8573 67.6627 40.8907C67.6655 40.9241 67.6761 40.9567 67.694 40.9867C67.7118 41.0167 67.7365 41.0434 67.7667 41.0653C67.7968 41.0873 67.8318 41.104 67.8697 41.1146L73.7154 42.7563Z" fill="#E6E6E6"/>
<path d="M25.0905 39.5479C26.789 39.5479 28.166 38.1586 28.166 36.4449C28.166 34.7311 26.789 33.3418 25.0905 33.3418C23.392 33.3418 22.015 34.7311 22.015 36.4449C22.015 38.1586 23.392 39.5479 25.0905 39.5479Z" fill="#9F616A"/>
<path d="M23.3128 36.8292C23.5566 36.8144 23.7946 36.8974 24.0368 36.9301C24.903 37.0461 25.804 36.4119 25.9953 35.5517C26.0106 35.4371 26.0445 35.3259 26.0955 35.2223C26.2288 35.0027 26.5324 34.9609 26.7827 35.0114C27.0329 35.0619 27.2702 35.18 27.5251 35.1936C27.9187 35.2145 28.2965 34.97 28.5062 34.6333C28.7044 34.286 28.7887 33.8844 28.747 33.4859L28.5583 33.6856C28.4816 33.522 28.4521 33.3399 28.4729 33.1602C28.3729 33.1333 28.2678 33.1328 28.1675 33.1587C28.0673 33.1845 27.9753 33.2359 27.9004 33.308C27.734 33.3258 27.8596 32.9967 27.7361 32.8829C27.676 32.8457 27.6044 32.8321 27.535 32.845C27.181 32.8484 26.8948 32.5753 26.6159 32.3555C26.1327 31.9754 25.5677 31.7154 24.9665 31.5963C24.5668 31.5177 24.1419 31.5051 23.7629 31.6548C23.457 31.7934 23.1809 31.991 22.9502 32.2366C22.3568 32.8117 21.8314 33.4886 21.5846 34.2809C21.3839 34.9299 21.3782 35.6243 21.5683 36.2765C21.6677 36.6152 21.9675 37.7752 22.4064 37.8022C22.9574 37.8364 22.6265 36.8705 23.3128 36.8292Z" fill="#2F2E41"/>
<path d="M19.0541 61.2892C19.2246 61.1712 19.3675 61.0169 19.4725 60.8372C19.5776 60.6575 19.6423 60.4567 19.6622 60.249C19.682 60.0413 19.6565 59.8318 19.5874 59.6351C19.5183 59.4385 19.4073 59.2595 19.2622 59.1108L19.8109 46.7524L17.0173 47.0688L17.1796 59.1574C16.9481 59.4199 16.8201 59.7589 16.8198 60.1102C16.8195 60.4616 16.947 60.8008 17.1781 61.0637C17.4092 61.3265 17.7278 61.4947 18.0735 61.5363C18.4193 61.578 18.7682 61.4902 19.0541 61.2896V61.2892Z" fill="#A0616A"/>
<path d="M24.1503 82.2098L25.7403 82.4918L27.3117 76.4378L25.2285 76.0215L24.1503 82.2098Z" fill="#A0616A"/>
<path d="M28.5361 84.5274L23.5385 83.6367L23.8795 81.6885L26.9463 82.2351C27.4584 82.3264 27.9136 82.6191 28.2117 83.049C28.5099 83.4789 28.6265 84.0107 28.5361 84.5274Z" fill="#2F2E41"/>
<path d="M19.7863 83.0127H21.4006L22.1685 76.73H19.786L19.7863 83.0127Z" fill="#A0616A"/>
<path d="M24.5124 84.5252H19.4387V82.5474H22.5522C23.0721 82.5474 23.5707 82.7557 23.9383 83.1267C24.3059 83.4976 24.5124 84.0007 24.5124 84.5252Z" fill="#2F2E41"/>
<path d="M26.5217 80.7605C26.4965 80.7605 26.4713 80.759 26.4463 80.756L24.5461 80.5983C24.3769 80.5782 24.2224 80.4911 24.1168 80.3561C24.0112 80.2212 23.963 80.0494 23.9829 79.8786C23.9841 79.8678 23.9857 79.8571 23.9875 79.8463L25.8743 70.4556L24.6887 64.1481C24.6791 64.0968 24.6515 64.0507 24.6108 64.0184C24.5702 63.9861 24.5193 63.9698 24.4676 63.9723C24.4159 63.9749 24.3669 63.9963 24.3297 64.0325C24.2924 64.0687 24.2694 64.1173 24.2649 64.1693L22.519 80.1961C22.5027 80.365 22.4221 80.5208 22.2941 80.6308C22.1661 80.7408 22.0008 80.7963 21.833 80.7856L20.0429 80.7184C19.886 80.7072 19.7386 80.6384 19.6286 80.525C19.5185 80.4117 19.4534 80.2616 19.4456 80.1031L19.5886 60.7364L28.8696 59.5659L29.5179 69.6687L29.5153 69.6794L27.1461 80.265C27.112 80.4062 27.032 80.5318 26.9187 80.6216C26.8055 80.7115 26.6657 80.7604 26.5217 80.7605Z" fill="#2F2E41"/>
<path d="M25.6958 62.211C25.1898 62.2141 24.6936 62.0709 24.2658 61.7983C22.6991 60.8104 20.9198 61.2031 19.9985 61.5254C19.907 61.5577 19.8096 61.5687 19.7133 61.5577C19.6171 61.5466 19.5246 61.5137 19.4427 61.4615C19.3618 61.4102 19.2934 61.3412 19.2427 61.2594C19.1919 61.1777 19.1602 61.0855 19.1498 60.9897L17.4749 45.8929C17.1941 43.3636 18.7042 40.9855 21.0655 40.2386C21.1542 40.2105 21.2443 40.1839 21.336 40.1587C22.0708 39.9577 22.8403 39.9217 23.5904 40.053C24.3406 40.1844 25.053 40.4801 25.6777 40.9191C26.3141 41.363 26.8463 41.9422 27.2369 42.6159C27.6275 43.2896 27.8671 44.0415 27.9387 44.8187L29.3493 60.0162C29.3589 60.1147 29.3456 60.214 29.3106 60.3064C29.2756 60.3988 29.2199 60.4817 29.1477 60.5486C28.6533 61.0101 27.2183 62.2108 25.6958 62.211Z" fill="#F86E32"/>
<path d="M20.5945 49.1296L16.8148 48.7104C16.7073 48.6985 16.6036 48.6633 16.5107 48.6073C16.4179 48.5513 16.3381 48.4757 16.2768 48.3858C16.2155 48.2958 16.1741 48.1936 16.1555 48.0861C16.1369 47.9785 16.1415 47.8682 16.1689 47.7627L17.131 44.063C17.16 43.7873 17.2426 43.5201 17.374 43.2767C17.5055 43.0333 17.6831 42.8184 17.8969 42.6443C18.1107 42.4702 18.3564 42.3403 18.62 42.2621C18.8835 42.1838 19.1598 42.1587 19.4329 42.1883C19.7061 42.2178 19.9708 42.3014 20.212 42.4342C20.4531 42.567 20.666 42.7465 20.8383 42.9623C21.0107 43.1782 21.1392 43.4262 21.2165 43.6922C21.2939 43.9581 21.3185 44.2369 21.289 44.5125C21.2881 44.5205 21.2872 44.5284 21.2863 44.5364L21.4291 48.3461C21.4332 48.4552 21.4139 48.5639 21.3725 48.6648C21.3312 48.7656 21.2688 48.8563 21.1896 48.9307C21.1104 49.005 21.0162 49.0613 20.9135 49.0956C20.8109 49.13 20.702 49.1416 20.5945 49.1296Z" fill="#F86E32"/>
<path d="M29.3336 60.7607C29.4889 60.6228 29.6123 60.4523 29.6951 60.2611C29.778 60.0699 29.8183 59.8627 29.8132 59.6541C29.8081 59.4455 29.7577 59.2406 29.6656 59.0538C29.5736 58.8669 29.442 58.7027 29.2802 58.5728L28.3488 46.2378L25.6115 46.8596L27.2184 58.872C27.02 59.1607 26.9335 59.5127 26.9752 59.8615C27.0169 60.2102 27.1839 60.5314 27.4447 60.7642C27.7054 60.997 28.0417 61.1253 28.3899 61.1246C28.738 61.124 29.0738 60.9945 29.3337 60.7607L29.3336 60.7607Z" fill="#A0616A"/>
<path d="M24.5618 48.354C24.4825 48.2797 24.42 48.1889 24.3787 48.088C24.3374 47.987 24.3182 47.8783 24.3223 47.7691L24.4651 43.9593C24.4063 43.4051 24.5673 42.8499 24.9129 42.415C25.2584 41.9801 25.7606 41.7009 26.3095 41.6383C26.8585 41.5758 27.4097 41.735 27.8427 42.0812C28.2757 42.4274 28.5553 42.9324 28.6205 43.4859L29.5825 47.1856C29.61 47.2912 29.6145 47.4015 29.5959 47.5091C29.5773 47.6166 29.5359 47.7188 29.4746 47.8087C29.4134 47.8987 29.3336 47.9743 29.2407 48.0303C29.1479 48.0863 29.0441 48.1215 28.9366 48.1334L25.157 48.5526C25.0494 48.5646 24.9405 48.5531 24.8378 48.5187C24.7351 48.4844 24.6409 48.4281 24.5618 48.3537V48.354Z" fill="#F86E32"/>
</svg>
