<svg width="44" height="45" viewBox="0 0 44 45" fill="none" xmlns="http://www.w3.org/2000/svg">
<path d="M11.1845 26.0084L11.1802 26.0151C11.0134 26.2747 10.963 26.5856 11.0396 26.8797C11.1162 27.1739 11.3139 27.4284 11.5906 27.5866L11.1845 26.0084ZM11.1845 26.0084L11.1866 26.0007C12.5615 20.7239 15.2851 16.1899 19.7958 12.6374L19.8023 12.6322L19.8068 12.6252C19.9744 12.3658 20.245 12.1787 20.56 12.1061C20.8751 12.0334 21.2077 12.0814 21.4848 12.2391L32.2299 18.3704L11.1845 26.0084ZM22.3357 33.718L11.5906 27.5867L32.23 18.3705C32.5066 18.5287 32.7043 18.7832 32.7809 19.0774C32.8575 19.3715 32.8071 19.6824 32.6403 19.942L32.6388 19.941L32.6347 19.9539C30.9112 25.3729 28.3316 30.069 24.0256 33.3191L24.0185 33.3244L24.0137 33.3319C23.8461 33.5913 23.5755 33.7784 23.2605 33.851C22.9455 33.9237 22.6128 33.8757 22.3357 33.718Z" fill="#FAFAFA" stroke="black" stroke-width="0.1"/>
<path opacity="0.2" d="M13.048 27.7696C12.7602 27.605 12.5536 27.3397 12.4734 27.0318C12.3933 26.724 12.4461 26.3988 12.6204 26.1276C13.9978 20.8413 16.7271 16.2976 21.2471 12.7377C21.3629 12.5604 21.5263 12.415 21.721 12.3163L21.5096 12.1957C21.2214 12.0317 20.8759 11.9819 20.5488 12.0574C20.2217 12.1328 19.9398 12.3272 19.7648 12.5981C15.2448 16.158 12.5156 20.7017 11.1382 25.9881C10.9639 26.2592 10.911 26.5844 10.9912 26.8923C11.0714 27.2001 11.278 27.4654 11.5658 27.63L22.3109 33.7614C22.5022 33.8697 22.7204 33.9285 22.9436 33.9318C23.1668 33.9352 23.3869 33.8829 23.5817 33.7804L13.048 27.7696Z" fill="#363636"/>
<path d="M25.2927 25.5139L18.0801 21.424C17.9655 21.3588 17.8831 21.2535 17.8509 21.1312C17.8188 21.0089 17.8395 20.8795 17.9086 20.7716C17.9777 20.6637 18.0895 20.586 18.2194 20.5556C18.3494 20.5252 18.4868 20.5445 18.6016 20.6094L25.8142 24.6994C25.9285 24.7647 26.0107 24.8699 26.0426 24.9921C26.0746 25.1143 26.0538 25.2435 25.9848 25.3513C25.9158 25.459 25.8042 25.5367 25.6745 25.5672C25.5447 25.5977 25.4075 25.5785 25.2927 25.5139Z" fill="#D4D4D4"/>
<path d="M26.3745 23.613L19.1619 19.5231C19.0473 19.4579 18.9648 19.3526 18.9327 19.2303C18.9005 19.108 18.9213 18.9787 18.9904 18.8707C19.0595 18.7628 19.1713 18.6851 19.3012 18.6547C19.4311 18.6243 19.5686 18.6436 19.6834 18.7085L26.896 22.7985C27.0103 22.8638 27.0925 22.9691 27.1244 23.0913C27.1564 23.2135 27.1356 23.3426 27.0666 23.4504C26.9976 23.5582 26.886 23.6358 26.7563 23.6663C26.6265 23.6968 26.4892 23.6776 26.3745 23.613Z" fill="#D4D4D4"/>
<path d="M22.5561 17.2662L20.9693 16.3665C20.8543 16.3017 20.7714 16.1966 20.7387 16.0743C20.706 15.952 20.7263 15.8225 20.7951 15.7143C20.8639 15.6061 20.9756 15.528 21.1055 15.4973C21.2355 15.4665 21.3731 15.4856 21.4881 15.5504L21.4908 15.5519L23.0776 16.4517C23.1919 16.517 23.2741 16.6223 23.3061 16.7445C23.3381 16.8667 23.3173 16.9958 23.2483 17.1036C23.1793 17.2115 23.0677 17.2891 22.9379 17.3196C22.8081 17.3501 22.6708 17.3309 22.5561 17.2662Z" fill="#D4D4D4"/>
<path d="M24.1464 27.3043L16.9337 23.2144C16.819 23.1494 16.7364 23.0441 16.7041 22.9218C16.6718 22.7995 16.6923 22.6702 16.7613 22.5621C16.8303 22.4541 16.942 22.3763 17.0719 22.3457C17.2019 22.3152 17.3394 22.3344 17.4542 22.3992L17.4552 22.3998L24.6679 26.4898C24.7822 26.5551 24.8643 26.6604 24.8963 26.7825C24.9283 26.9047 24.9075 27.0339 24.8385 27.1417C24.7695 27.2495 24.6579 27.3271 24.5282 27.3576C24.3984 27.3881 24.2611 27.3689 24.1464 27.3043Z" fill="#D4D4D4"/>
<mask id="path-7-inside-1_98_275" fill="white">
<path d="M37.4843 18.8186C36.4142 14.6811 33.7969 11.2077 30.1146 9.0386C26.4322 6.86953 22.1254 6.26433 17.9879 7.33433C13.8503 8.40439 10.3769 11.0217 8.20786 14.704C6.22806 18.0651 5.55098 21.9463 6.26227 25.7448C6.32979 26.1077 6.41031 26.47 6.50356 26.8308C6.52552 26.9155 6.54797 27.0007 6.57186 27.0846C6.70174 27.5562 6.85166 28.0187 7.02174 28.4707C7.02236 28.4732 7.02277 28.4748 7.02373 28.4768C8.30371 31.887 10.6906 34.736 13.8733 36.6107C17.5556 38.7798 21.8624 39.385 26 38.315C26.308 38.2354 26.612 38.1471 26.9117 38.0507C30.6468 36.8497 33.7721 34.354 35.78 30.9453C37.949 27.263 38.5543 22.9562 37.4843 18.8186ZM26.9541 37.9017C26.273 38.1254 25.5774 38.3035 24.8725 38.4335C23.5345 38.682 22.1627 38.7591 20.7924 38.6571C20.3114 38.6215 19.8308 38.5639 19.3518 38.4835C17.4906 38.1719 15.655 37.5206 13.9344 36.5071C12.2738 35.5289 10.8569 34.2936 9.70399 32.8815C9.23045 32.3023 8.80184 31.6932 8.41915 31.0593C8.36298 30.9662 8.30766 30.8729 8.25345 30.7789C7.96825 30.2841 7.71013 29.7754 7.48116 29.2551C7.15214 28.5112 6.8811 27.7435 6.67021 26.9603C6.55184 26.5213 6.45262 26.0782 6.37203 25.6307C5.72044 22.0189 6.3073 18.1676 8.31152 14.7651C12.7556 7.22062 22.509 4.69819 30.0535 9.14225C37.598 13.5863 40.1204 23.3398 35.6763 30.8842C33.6413 34.339 30.4934 36.7404 26.9541 37.9017Z"/>
</mask>
<path d="M37.4843 18.8186C36.4142 14.6811 33.7969 11.2077 30.1146 9.0386C26.4322 6.86953 22.1254 6.26433 17.9879 7.33433C13.8503 8.40439 10.3769 11.0217 8.20786 14.704C6.22806 18.0651 5.55098 21.9463 6.26227 25.7448C6.32979 26.1077 6.41031 26.47 6.50356 26.8308C6.52552 26.9155 6.54797 27.0007 6.57186 27.0846C6.70174 27.5562 6.85166 28.0187 7.02174 28.4707C7.02236 28.4732 7.02277 28.4748 7.02373 28.4768C8.30371 31.887 10.6906 34.736 13.8733 36.6107C17.5556 38.7798 21.8624 39.385 26 38.315C26.308 38.2354 26.612 38.1471 26.9117 38.0507C30.6468 36.8497 33.7721 34.354 35.78 30.9453C37.949 27.263 38.5543 22.9562 37.4843 18.8186ZM26.9541 37.9017C26.273 38.1254 25.5774 38.3035 24.8725 38.4335C23.5345 38.682 22.1627 38.7591 20.7924 38.6571C20.3114 38.6215 19.8308 38.5639 19.3518 38.4835C17.4906 38.1719 15.655 37.5206 13.9344 36.5071C12.2738 35.5289 10.8569 34.2936 9.70399 32.8815C9.23045 32.3023 8.80184 31.6932 8.41915 31.0593C8.36298 30.9662 8.30766 30.8729 8.25345 30.7789C7.96825 30.2841 7.71013 29.7754 7.48116 29.2551C7.15214 28.5112 6.8811 27.7435 6.67021 26.9603C6.55184 26.5213 6.45262 26.0782 6.37203 25.6307C5.72044 22.0189 6.3073 18.1676 8.31152 14.7651C12.7556 7.22062 22.509 4.69819 30.0535 9.14225C37.598 13.5863 40.1204 23.3398 35.6763 30.8842C33.6413 34.339 30.4934 36.7404 26.9541 37.9017Z" fill="#3F3D56"/>
<path d="M37.4843 18.8186L47.1657 16.3148L47.1657 16.3147L37.4843 18.8186ZM17.9879 7.33433L15.4842 -2.34718L15.484 -2.34714L17.9879 7.33433ZM6.26227 25.7448L16.0936 23.916L16.0914 23.9042L6.26227 25.7448ZM6.50356 26.8308L-3.1782 29.3335L-3.17703 29.338L6.50356 26.8308ZM6.57186 27.0846L16.213 24.4296L16.2014 24.3874L16.1893 24.3452L6.57186 27.0846ZM7.02174 28.4707L16.7229 26.0444L16.5834 25.4867L16.381 24.9486L7.02174 28.4707ZM7.02373 28.4768L16.386 24.9628L16.2052 24.4812L15.976 24.0207L7.02373 28.4768ZM26 38.315L28.5037 47.9965L28.5041 47.9964L26 38.315ZM26.9117 38.0507L23.8507 28.5307L23.8499 28.5309L26.9117 38.0507ZM26.9541 37.9017L23.8364 28.4002L23.8349 28.4007L26.9541 37.9017ZM24.8725 38.4335L23.0583 28.5994L23.0466 28.6016L24.8725 38.4335ZM20.7924 38.6571L21.5351 28.6847L21.5291 28.6842L20.7924 38.6571ZM19.3518 38.4835L21.0066 28.6214L21.0032 28.6208L19.3518 38.4835ZM9.70399 32.8815L17.4502 26.5573L17.4457 26.5518L9.70399 32.8815ZM8.41915 31.0593L-0.142572 36.2262L-0.141594 36.2279L8.41915 31.0593ZM8.25345 30.7789L-0.410185 35.773L-0.410056 35.7733L8.25345 30.7789ZM7.48116 29.2551L16.6339 25.2269L16.6303 25.2185L16.6266 25.2102L7.48116 29.2551ZM6.67021 26.9603L16.3263 24.3603L16.3254 24.3571L6.67021 26.9603ZM6.37203 25.6307L16.2137 23.8581L16.2132 23.8553L6.37203 25.6307ZM47.1657 16.3147C45.4316 9.60971 41.1576 3.93751 35.1899 0.422308L25.0392 17.6549C26.4362 18.4778 27.3968 19.7525 27.8028 21.3225L47.1657 16.3147ZM35.1899 0.422308C29.2223 -3.09291 22.1892 -4.08114 15.4842 -2.34718L20.4916 17.0158C22.0616 16.6098 23.6421 16.832 25.0392 17.6549L35.1899 0.422308ZM15.484 -2.34714C8.77889 -0.613047 3.10675 3.66106 -0.408422 9.62864L16.8242 19.7794C17.6471 18.3824 18.9217 17.4218 20.4917 17.0158L15.484 -2.34714ZM-0.408422 9.62864C-3.61246 15.068 -4.7241 21.4054 -3.56689 27.5853L16.0914 23.9042C15.8261 22.4871 16.0686 21.0621 16.8242 19.7794L-0.408422 9.62864ZM-3.56908 27.5736C-3.45895 28.1656 -3.32835 28.7526 -3.1782 29.3335L16.1853 24.328C16.149 24.1874 16.1185 24.0499 16.0936 23.916L-3.56908 27.5736ZM-3.17703 29.338C-3.14994 29.4426 -3.10332 29.6214 -3.04562 29.8239L16.1893 24.3452C16.1924 24.356 16.1946 24.3638 16.1958 24.3681C16.1969 24.3724 16.1973 24.3738 16.1968 24.3718C16.1962 24.3697 16.195 24.365 16.1928 24.3568C16.1906 24.3485 16.1879 24.3379 16.1842 24.3235L-3.17703 29.338ZM-3.06926 29.7395C-2.86074 30.4967 -2.61741 31.2489 -2.33747 31.9928L16.381 24.9486C16.3207 24.7886 16.2642 24.6157 16.213 24.4296L-3.06926 29.7395ZM-2.67944 30.897C-2.71782 30.7436 -2.49137 31.8021 -1.92857 32.9328L15.976 24.0207C16.5369 25.1476 16.7625 26.2028 16.7229 26.0444L-2.67944 30.897ZM-2.33853 31.9908C-0.252666 37.5481 3.65062 42.195 8.79791 45.227L18.9487 27.9944C17.7306 27.2769 16.8601 26.2259 16.386 24.9628L-2.33853 31.9908ZM8.79791 45.227C14.7654 48.7422 21.7985 49.7305 28.5037 47.9965L23.4962 28.6335C21.9263 29.0395 20.3458 28.8174 18.9487 27.9944L8.79791 45.227ZM28.5041 47.9964C29.0019 47.8677 29.4919 47.7253 29.9736 47.5704L23.8499 28.5309C23.7321 28.5688 23.6141 28.6031 23.4959 28.6336L28.5041 47.9964ZM29.9728 47.5706C36.0456 45.618 41.1461 41.5384 44.3963 36.0207L27.1637 25.8699C26.3981 27.1696 25.2481 28.0814 23.8507 28.5307L29.9728 47.5706ZM44.3963 36.0207C47.9114 30.0531 48.8998 23.02 47.1657 16.3148L27.8028 21.3224C28.2088 22.8923 27.9866 24.4728 27.1637 25.8699L44.3963 36.0207ZM23.8349 28.4007C23.5752 28.4859 23.3155 28.552 23.0583 28.5994L26.6868 48.2676C27.8393 48.0549 28.9707 47.7648 30.0733 47.4028L23.8349 28.4007ZM23.0466 28.6016C22.5492 28.694 22.0407 28.7223 21.5351 28.6847L20.0498 48.6294C22.2847 48.7959 24.5198 48.67 26.6985 48.2654L23.0466 28.6016ZM21.5291 28.6842C21.3523 28.6712 21.1781 28.6502 21.0066 28.6214L17.6971 48.3457C18.4835 48.4776 19.2705 48.5719 20.0558 48.6299L21.5291 28.6842ZM21.0032 28.6208C20.3296 28.508 19.6573 28.2722 19.0097 27.8908L8.85896 45.1233C11.6527 46.769 14.6517 47.8358 17.7004 48.3462L21.0032 28.6208ZM19.0097 27.8908C18.3851 27.5228 17.868 27.069 17.4502 26.5573L1.95778 39.2058C3.84576 41.5183 6.16251 43.535 8.85896 45.1233L19.0097 27.8908ZM17.4457 26.5518C17.2756 26.3437 17.1201 26.123 16.9799 25.8908L-0.141594 36.2279C0.483568 37.2633 1.1853 38.261 1.96224 39.2112L17.4457 26.5518ZM16.9809 25.8924C16.9516 25.8439 16.9312 25.8093 16.917 25.7845L-0.410056 35.7733C-0.315886 35.9366 -0.225661 36.0886 -0.142572 36.2262L16.9809 25.8924ZM16.9171 25.7847C16.8093 25.5977 16.715 25.4111 16.6339 25.2269L-1.6716 33.2834C-1.29475 34.1397 -0.872748 34.9706 -0.410185 35.773L16.9171 25.7847ZM16.6266 25.2102C16.5051 24.9356 16.4046 24.651 16.3263 24.3603L-2.98589 29.5602C-2.64237 30.836 -2.20084 32.0869 -1.66426 33.3L16.6266 25.2102ZM16.3254 24.3571C16.2818 24.1953 16.2445 24.0293 16.2137 23.8581L-3.46961 27.4033C-3.33927 28.127 -3.17812 28.8473 -2.98503 29.5634L16.3254 24.3571ZM16.2132 23.8553C15.9691 22.5024 16.1884 21.0957 16.9278 19.8405L-0.304768 9.68969C-3.5738 15.2394 -4.52822 21.5354 -3.46911 27.4061L16.2132 23.8553ZM16.9278 19.8405C18.5688 17.0546 22.1923 16.1175 24.9781 17.7585L35.1289 0.525962C22.8257 -6.72117 6.94232 -2.6134 -0.304768 9.68969L16.9278 19.8405ZM24.9781 17.7585C27.7639 19.3995 28.701 23.023 27.06 25.8088L44.2926 35.9596C51.5397 23.6565 47.432 7.77309 35.1289 0.525962L24.9781 17.7585ZM27.06 25.8088C26.3091 27.0837 25.1614 27.9654 23.8364 28.4002L30.0718 47.4033C35.8254 45.5154 40.9735 41.5943 44.2926 35.9596L27.06 25.8088Z" fill="black" mask="url(#path-7-inside-1_98_275)"/>
</svg>
