<svg width="51" height="51" viewBox="0 0 51 51" fill="none" xmlns="http://www.w3.org/2000/svg">
<circle cx="25.5" cy="25.5" r="25.25" stroke="#6FAF2C" stroke-width="0.5"/>
<path d="M15.2595 35.4684C13.3475 28.7544 13.4057 21.9814 16.0736 15.1301C16.0905 14.7185 16.2748 14.3215 16.5861 14.0263C16.8973 13.7311 17.31 13.5617 17.7336 13.5554L33.5414 13.3374C33.965 13.332 34.3646 13.4902 34.6526 13.7771C34.9405 14.064 35.0932 14.4564 35.0772 14.868C36.6957 21.9595 36.9034 28.818 34.2631 35.2063C34.2462 35.6179 34.0619 36.0149 33.7507 36.3101C33.4394 36.6053 33.0267 36.7746 32.6031 36.7809L16.7953 36.999C16.3717 37.0043 15.9721 36.8462 15.6841 36.5593C15.3962 36.2723 15.2435 35.88 15.2595 35.4684Z" fill="#6FAF2C"/>
<path opacity="0.2" d="M18.5179 36.1913C18.0942 36.1967 17.6946 36.0386 17.4067 35.7516C17.1188 35.4647 16.9661 35.0723 16.9821 34.6607C15.0701 27.9467 15.1282 21.1737 17.7961 14.3225C17.8086 14.0522 17.8944 13.7861 18.0447 13.5512L17.7336 13.5554C17.31 13.5618 16.8973 13.7311 16.586 14.0263C16.2748 14.3215 16.0905 14.7185 16.0735 15.1301C13.4057 21.9814 13.3475 28.7544 15.2595 35.4684C15.2435 35.88 15.3962 36.2723 15.6841 36.5593C15.9721 36.8462 16.3717 37.0043 16.7953 36.999L32.603 36.781C32.8838 36.7762 33.1623 36.6993 33.4102 36.5582C33.6581 36.4172 33.8666 36.2168 34.0145 35.9776L18.5179 36.1913Z" fill="#0D420D"/>
<path d="M30.477 24.7662L19.8828 24.9409C19.7144 24.9434 19.5553 24.8809 19.4406 24.7671C19.3259 24.6533 19.2648 24.4974 19.2709 24.3338C19.277 24.1701 19.3497 24.0121 19.473 23.8943C19.5964 23.7766 19.7603 23.7087 19.9287 23.7058L30.5229 23.5311C30.6912 23.5289 30.8499 23.5915 30.9643 23.7053C31.0788 23.8191 31.1397 23.9748 31.1336 24.1382C31.1275 24.3017 31.055 24.4595 30.9319 24.5773C30.8089 24.695 30.6453 24.7629 30.477 24.7662Z" fill="#FEF6F2"/>
<path d="M22.3395 21.5157L20.0088 21.5541C19.8402 21.5574 19.6807 21.4955 19.5654 21.382C19.4501 21.2685 19.3885 21.1128 19.394 20.949C19.3996 20.7852 19.4719 20.6269 19.595 20.5087C19.7182 20.3906 19.8821 20.3224 20.0507 20.3191L20.0547 20.319L22.3854 20.2806C22.5537 20.2783 22.7124 20.3409 22.8269 20.4547C22.9414 20.5685 23.0023 20.7242 22.9962 20.8877C22.9902 21.0512 22.9176 21.2091 22.7945 21.3268C22.6714 21.4445 22.5078 21.5124 22.3395 21.5157Z" fill="#FEF6F2"/>
<path d="M30.3761 27.4811L19.7819 27.6557C19.6134 27.6585 19.4542 27.5962 19.3393 27.4825C19.2244 27.3688 19.1631 27.213 19.169 27.0494C19.1749 26.8857 19.2474 26.7275 19.3707 26.6096C19.4939 26.4917 19.6578 26.4237 19.8263 26.4206L19.8278 26.4206L30.422 26.2459C30.5902 26.2437 30.749 26.3063 30.8634 26.4201C30.9779 26.5339 31.0388 26.6896 31.0327 26.8531C31.0266 27.0165 30.9541 27.1744 30.831 27.2921C30.7079 27.4098 30.5444 27.4778 30.3761 27.4811Z" fill="#FEF6F2"/>
</svg>
