<svg width="99" height="99" viewBox="0 0 99 99" fill="none" xmlns="http://www.w3.org/2000/svg">
<path d="M98.6823 49.7617C98.6823 76.7379 76.8137 98.6065 49.8375 98.6065C22.8613 98.6065 0.9927 76.7379 0.9927 49.7617C0.9927 22.7855 22.8613 0.916895 49.8375 0.916895C76.8137 0.916895 98.6823 22.7855 98.6823 49.7617Z" fill="white" stroke="black" stroke-width="0.2"/>
<path d="M49.0365 56.7825C56.5096 56.7825 62.5677 50.7244 62.5677 43.2514C62.5677 35.7783 56.5096 29.7202 49.0365 29.7202C41.5635 29.7202 35.5054 35.7783 35.5054 43.2514C35.5054 50.7244 41.5635 56.7825 49.0365 56.7825Z" fill="#FFB8B8"/>
<path d="M36.2351 47.4852C36.2351 47.4852 37.3847 45.4662 37.1175 38.7215C36.8502 31.9768 47.1208 35.7915 55.7029 35.1481C64.2851 34.5047 62.4684 46.4085 62.4684 46.4085C62.4684 46.4085 63.0875 45.7009 64.4131 39.9558C65.7387 34.2106 62.7289 28.4853 62.7289 28.4853C61.8425 22.4482 57.0652 24.3831 57.0652 24.3831C59.3659 25.2787 58.924 27.1938 58.924 27.1938C56.9766 23.7794 52.1993 25.7143 52.1993 25.7143C45.8278 21.7161 39.3704 26.9813 39.3704 26.9813C31.6734 28.7281 36.1874 34.8493 36.1874 34.8493C28.4467 38.7611 36.2351 47.4852 36.2351 47.4852Z" fill="#2F2E41"/>
<path d="M71.6143 75.0081C67.7574 72.9756 63.7315 71.2814 59.5819 69.9445L59.0523 64.0912L37.5934 61.7793L34.8662 69.2607L27.1651 72.1507C26.8894 72.2552 26.6269 72.3918 26.3832 72.5577H26.3749C25.114 72.6645 23.8998 73.0842 22.8421 73.7788C22.1247 74.2367 21.4869 74.8087 20.9537 75.4721C21.9957 76.2618 23.0779 76.9944 24.1933 77.6946L24.2424 77.719C24.5599 77.9144 24.8858 78.1098 25.2109 78.297C25.7974 78.647 26.3998 78.9808 27.0022 79.2983L27.3849 79.4937C28.2639 79.9496 29.1595 80.381 30.0794 80.7799C30.2666 80.8613 30.4704 80.9427 30.6576 81.0242C30.6735 81.0323 30.6819 81.0323 30.6978 81.0405C31.1297 81.2196 31.5609 81.3904 32.0004 81.5533C33.4445 82.1048 34.9175 82.5777 36.4128 82.9698C40.229 83.9869 44.1616 84.5014 48.111 84.5003C49.5522 84.5003 50.9769 84.4351 52.3855 84.2967C55.6034 83.9997 58.7801 83.3584 61.8612 82.3837C61.8689 82.3837 61.8779 82.3755 61.8855 82.3755C63.832 81.7555 65.7334 81.002 67.5762 80.1205C67.5839 80.1124 67.6005 80.1124 67.6088 80.1042C68.024 79.9088 68.4227 79.6972 68.8296 79.4937L69.0251 79.396C69.3509 79.2251 69.6767 79.0541 70.0025 78.875C70.8164 78.4273 71.6143 77.9551 72.4032 77.4503C72.623 77.3201 72.8351 77.1817 73.0548 77.0352C73.364 76.8316 73.6732 76.62 73.9747 76.4002C73.2177 75.9117 72.4282 75.4477 71.6143 75.0081Z" fill="#F86E32"/>
</svg>
