<svg width="1895" height="1062" viewBox="0 0 1895 1062" fill="none" xmlns="http://www.w3.org/2000/svg">
<path d="M912.461 243.168C750.318 260.466 632.638 403.44 649.603 562.508C666.568 721.575 814.206 836.231 969.558 819.676C969.558 819.676 1006.1 814.474 1002.13 777.289C998.158 740.104 959.845 743.051 959.845 743.051C849.956 754.763 740.272 670.859 727.817 554.153C715.362 437.447 801.7 332.556 920.661 319.87C977.938 313.771 1021.02 329.865 1050 345.907C1062.25 352.698 1092.62 354.8 1103.92 326.918C1115.25 299.035 1092.16 280.148 1085.37 276.714C1078.58 273.28 1009.87 232.763 912.461 243.142V243.168Z" fill="#FB7411"/>
<path d="M1352.94 537.471C1356.27 318.051 1177.65 137.431 953.976 134.048C730.303 130.665 546.351 305.827 543.045 525.246C539.739 744.666 718.36 925.286 942.008 928.669C961.818 928.515 992.648 928.156 1018.79 922.749C1037.88 918.802 1050.26 896.071 1047.18 879.644C1041.39 839.025 1002.23 846.893 1002.23 846.893C993.263 848.225 979.834 851.787 943.162 851.224C763.105 848.507 619.286 703.099 621.951 526.425C624.616 349.752 772.741 208.751 952.823 211.468C1132.88 214.184 1276.7 359.593 1274.03 536.266C1272.37 647.026 1217.55 732.672 1142.77 788.027C1142.77 788.027 1112.53 811.963 1131.34 842.1C1150.15 872.238 1186.82 852.377 1186.82 852.377C1263.6 797.048 1350.58 692.848 1352.94 537.445V537.471Z" fill="#FB7411"/>
<path d="M944.804 348.78C847.652 348.78 757.367 424.61 757.367 534.833C757.367 645.055 861.208 716.478 937.321 713.864C937.321 713.864 974.685 713.864 975.736 675.961C976.787 638.059 937.321 638.059 937.321 638.059C892.627 638.059 840.912 593.211 840.912 530.399C840.912 471.841 889.065 424.636 946.803 424.636C1004.54 424.636 1052.69 471.995 1052.69 530.399L1052.95 675.961C1052.95 675.961 1054.87 713.864 1091.06 713.864C1127.24 713.864 1129.47 675.961 1129.47 675.961V534.141C1129.47 422.509 1041.98 348.805 944.83 348.805L944.804 348.78Z" fill="#FB7411"/>
<path d="M912.461 243.168C750.318 260.466 632.638 403.44 649.603 562.508C666.568 721.575 814.206 836.231 969.558 819.676C969.558 819.676 1006.1 814.474 1002.13 777.289C998.158 740.104 959.845 743.051 959.845 743.051C849.956 754.763 740.272 670.859 727.817 554.153C715.362 437.447 801.7 332.556 920.661 319.87C977.938 313.771 1021.02 329.865 1050 345.907C1062.25 352.698 1092.62 354.8 1103.92 326.918C1115.25 299.035 1092.16 280.148 1085.37 276.714C1078.58 273.28 1009.87 232.763 912.461 243.142V243.168Z" fill="url(#paint0_linear_3203_48)"/>
<path d="M1352.94 537.471C1356.27 318.051 1177.65 137.431 953.976 134.048C730.303 130.665 546.351 305.827 543.045 525.246C539.739 744.666 718.36 925.286 942.008 928.669C961.818 928.515 992.648 928.156 1018.79 922.749C1037.88 918.802 1050.26 896.071 1047.18 879.644C1041.39 839.025 1002.23 846.893 1002.23 846.893C993.263 848.225 979.834 851.787 943.162 851.224C763.105 848.507 619.286 703.099 621.951 526.425C624.616 349.752 772.741 208.751 952.823 211.468C1132.88 214.184 1276.7 359.593 1274.03 536.266C1272.37 647.026 1217.55 732.672 1142.77 788.027C1142.77 788.027 1112.53 811.963 1131.34 842.1C1150.15 872.238 1186.82 852.377 1186.82 852.377C1263.6 797.048 1350.58 692.848 1352.94 537.445V537.471Z" fill="url(#paint1_linear_3203_48)"/>
<path d="M944.804 348.78C847.652 348.78 757.367 424.61 757.367 534.833C757.367 645.055 861.208 716.478 937.321 713.864C937.321 713.864 974.685 713.864 975.736 675.961C976.787 638.059 937.321 638.059 937.321 638.059C892.627 638.059 840.912 593.211 840.912 530.399C840.912 471.841 889.065 424.636 946.803 424.636C1004.54 424.636 1052.69 471.995 1052.69 530.399L1052.95 675.961C1052.95 675.961 1054.87 713.864 1091.06 713.864C1127.24 713.864 1129.47 675.961 1129.47 675.961V534.141C1129.47 422.509 1041.98 348.805 944.83 348.805L944.804 348.78Z" fill="url(#paint2_linear_3203_48)"/>
<g filter="url(#filter0_b_3203_48)">
<rect width="1895" height="1062" fill="white" fill-opacity="0.2"/>
</g>
<defs>
<filter id="filter0_b_3203_48" x="-40" y="-40" width="1975" height="1142" filterUnits="userSpaceOnUse" color-interpolation-filters="sRGB">
<feFlood flood-opacity="0" result="BackgroundImageFix"/>
<feGaussianBlur in="BackgroundImageFix" stdDeviation="20"/>
<feComposite in2="SourceAlpha" operator="in" result="effect1_backgroundBlur_3203_48"/>
<feBlend mode="normal" in="SourceGraphic" in2="effect1_backgroundBlur_3203_48" result="shape"/>
</filter>
<linearGradient id="paint0_linear_3203_48" x1="543.02" y1="531.345" x2="1353.02" y2="531.345" gradientUnits="userSpaceOnUse">
<stop stop-color="#F59D1B"/>
<stop offset="1" stop-color="#FC461B"/>
</linearGradient>
<linearGradient id="paint1_linear_3203_48" x1="542.994" y1="531.346" x2="1352.99" y2="531.346" gradientUnits="userSpaceOnUse">
<stop stop-color="#F59D1B"/>
<stop offset="1" stop-color="#FC461B"/>
</linearGradient>
<linearGradient id="paint2_linear_3203_48" x1="542.945" y1="531.347" x2="1352.94" y2="531.347" gradientUnits="userSpaceOnUse">
<stop stop-color="#F59D1B"/>
<stop offset="1" stop-color="#FC461B"/>
</linearGradient>
</defs>
</svg>
