<svg width="250" height="93" viewBox="0 0 250 93" fill="none" xmlns="http://www.w3.org/2000/svg">
<path fill-rule="evenodd" clip-rule="evenodd" d="M48.0965 0.00563892C74.273 0.401526 95.177 21.5395 94.7871 47.2181V47.2151C94.5112 65.4019 84.3321 77.5964 75.3467 84.0716C75.3467 84.0716 71.0549 86.3959 68.8536 82.8689C66.6522 79.3419 70.1912 76.5407 70.1912 76.5407C78.9427 70.0626 85.3578 60.0394 85.5528 47.0772C85.8647 26.4011 69.0335 9.38395 47.9615 9.06604C26.8866 8.74813 9.55155 25.2494 9.23964 45.9255C8.92773 66.6016 25.7589 83.6187 46.8309 83.9366C50.4718 83.9926 52.155 83.701 53.2227 83.5161C53.4135 83.483 53.5847 83.4534 53.7439 83.4297C53.7439 83.4297 58.3266 82.509 59.0044 87.2626C59.3643 89.1851 57.9157 91.8453 55.6813 92.3072C52.6222 92.94 49.0142 92.982 46.6959 93C20.5224 92.6041 -0.381604 71.4662 0.00528487 45.7875C0.392174 20.1089 21.92 -0.390248 48.0965 0.00563892ZM43.2383 12.7762C24.2627 14.8006 10.4907 31.5328 12.4761 50.1484C14.4616 68.7641 31.7396 82.1823 49.9204 80.2448C49.9204 80.2448 54.1972 79.636 53.7323 75.2842C53.2674 70.9325 48.7837 71.2774 48.7837 71.2774C35.9234 72.648 23.0871 62.8288 21.6295 49.1707C20.1719 35.5126 30.276 23.2372 44.198 21.7526C50.9011 21.0388 55.9427 22.9223 59.3347 24.7997C60.7683 25.5945 64.3223 25.8404 65.6449 22.5774C66.9705 19.3143 64.2683 17.1039 63.4735 16.702C63.4299 16.68 63.3645 16.6449 63.2779 16.5984C61.7863 15.7977 54.0126 11.6252 43.2383 12.7732V12.7762ZM132.192 25.6003C120.823 25.6003 110.257 34.4748 110.257 47.3741C110.257 60.2734 122.409 68.632 131.317 68.3261C131.317 68.3261 135.689 68.3261 135.812 63.8903C135.935 59.4546 131.317 59.4546 131.317 59.4546C126.086 59.4546 120.034 54.2061 120.034 46.8552C120.034 40.0022 125.669 34.4778 132.426 34.4778C139.183 34.4778 144.819 40.0202 144.819 46.8552L144.849 63.8903C144.849 63.8903 145.074 68.3261 149.309 68.3261C153.543 68.3261 153.804 63.8903 153.804 63.8903V47.2931C153.804 34.2288 143.565 25.6033 132.195 25.6033L132.192 25.6003ZM205.678 46.9617C205.679 34.4801 216.197 25.6003 227.533 25.6003C238.87 25.6003 249.223 34.6367 249.223 46.9632C249.223 46.9632 249.244 48.7957 248.911 50.5772C246.934 50.5772 215.566 50.5892 215.566 50.5892C217.879 57.2593 223.172 59.4486 227.533 59.4486C230.106 59.4486 232.454 58.5459 233.534 57.8351C233.534 57.8351 237.784 55.8377 239.775 59.5086C241.77 63.1766 238.138 65.5969 238.138 65.5969C238.061 65.634 237.981 65.6729 237.898 65.7133C236.02 66.6262 232.53 68.3231 227.533 68.3231C216.194 68.3231 205.679 59.4433 205.678 46.9617ZM227.533 34.4748C231.716 34.4748 236.753 36.8732 238.985 42.4195H215.911C218.14 36.7601 223.349 34.4748 227.533 34.4748ZM157.964 46.9632C157.964 33.8689 169.001 25.6003 179.819 25.6003L179.825 25.6033C190.643 25.6033 201.514 34.1479 201.514 47.2931V64.0553C201.514 79.5849 188.93 86.075 179.741 86.075C170.551 86.075 163.551 80.5506 160.525 74.7742C160.525 74.7742 158.909 70.5125 162.76 68.7729C166.61 67.0304 168.866 70.7434 168.866 70.7434C169.634 72.207 172.504 77.2005 179.987 77.2005C184.905 77.2005 192.097 72.7768 192.097 65.5219C192.097 64.9979 192.104 64.4967 192.111 63.9523L192.111 63.9414L192.111 63.9397C192.12 63.2847 192.13 62.5666 192.13 61.671C192.13 65.7528 186.885 68.3261 179.738 68.3261C169.079 68.3261 157.964 60.0574 157.964 46.9632ZM167.345 46.8582C167.345 53.6933 172.894 59.4516 179.738 59.4516C186.582 59.4516 192.13 53.6933 192.13 46.8582C192.13 40.0232 186.582 34.4808 179.738 34.4808C172.894 34.4808 167.345 40.0232 167.345 46.8582ZM47.0256 25.1358C35.6558 25.1358 25.0899 34.0103 25.0899 46.9096C25.0899 59.8089 37.2424 68.1675 46.1498 67.8616C46.1498 67.8616 50.5226 67.8616 50.6456 63.4259C50.7685 58.9901 46.1498 58.9901 46.1498 58.9901C40.9193 58.9901 34.8671 53.7416 34.8671 46.3907C34.8671 39.5377 40.5025 34.0133 47.2595 34.0133C54.0166 34.0133 59.652 39.5557 59.652 46.3907L59.682 63.4259C59.682 63.4259 59.9069 67.8616 64.1417 67.8616C68.3765 67.8616 68.6374 63.4259 68.6374 63.4259V46.8286C68.6374 33.7644 58.3983 25.1388 47.0286 25.1388L47.0256 25.1358Z" fill="url(#paint0_linear_2386_268)"/>
<defs>
<linearGradient id="paint0_linear_2386_268" x1="-0.000642185" y1="46.5015" x2="94.7921" y2="46.5015" gradientUnits="userSpaceOnUse">
<stop stop-color="#F59D1B"/>
<stop offset="1" stop-color="#FC461B"/>
</linearGradient>
</defs>
</svg>
