<svg width="34" height="33" viewBox="0 0 34 33" fill="none" xmlns="http://www.w3.org/2000/svg">
<path d="M25.3756 3.0701C25.488 3.17416 25.5996 3.27906 25.7107 3.38456C25.7453 3.41694 25.7798 3.44933 25.8154 3.48269C26.4508 4.08177 26.9912 4.72631 27.4981 5.43676C27.5282 5.47883 27.5582 5.52091 27.5891 5.56425C28.9994 7.56313 30.6095 10.626 30.6095 13.116C30.6614 13.1297 30.7133 13.1433 30.7668 13.1574C31.9306 13.5988 32.7489 14.569 33.2782 15.6647C34.0316 17.4066 34.2581 19.6974 33.6548 21.5234C33.6315 21.5951 33.6083 21.6668 33.5844 21.7407C33.3498 22.3729 32.9627 22.9797 32.459 23.4308C32.2108 23.6633 32.0814 23.914 31.9377 24.217C31.2997 25.56 30.3389 26.5895 28.9752 27.2042C28.2932 27.4427 27.5619 27.5039 26.8488 27.595C26.6363 27.6226 26.4239 27.6516 26.2115 27.6805C25.9784 27.712 25.7452 27.7426 25.5119 27.7731C25.3981 27.7881 25.2842 27.8032 25.1703 27.8186C23.3477 28.0628 21.673 27.9571 20.1499 26.8195C19.9211 26.6288 19.7027 26.4298 19.4879 26.2237C19.4319 26.1704 19.3759 26.1172 19.3183 26.0623C19.265 26.0063 19.2118 25.9503 19.1569 25.8927C19.1144 25.849 19.0719 25.8054 19.0281 25.7605C17.1366 23.7537 16.5589 21.07 16.6259 18.3941C16.6431 17.855 16.7085 17.3457 16.8399 16.8232C16.8505 16.7801 16.8612 16.7371 16.8722 16.6927C17.1504 15.6037 17.6355 14.5709 18.3625 13.7118C18.4045 13.6591 18.4465 13.6065 18.4897 13.5522C19.6319 12.1764 21.1995 11.8616 22.8883 11.675C23.1026 11.6561 23.3112 11.6532 23.5261 11.6596C23.7255 9.59059 23.718 7.68335 22.6655 5.83397C22.6295 5.76885 22.5935 5.70374 22.5564 5.63666C21.7284 4.23723 20.3565 3.34924 18.8921 2.72255C18.8277 2.69362 18.7632 2.66469 18.6968 2.63489C17.3058 2.08194 15.3999 2.56141 14.0711 3.11794C13.3979 3.41397 12.8303 3.769 12.2721 4.24516C12.2277 4.27963 12.1833 4.31411 12.1376 4.34963C10.0004 6.03995 9.26019 9.28942 8.95202 11.8323C8.85249 12.7191 8.81566 13.6066 8.79241 14.4979C8.78954 14.6021 8.78665 14.7064 8.78374 14.8106C8.77676 15.0622 8.77003 15.3138 8.76344 15.5654C8.8475 15.5623 8.93155 15.5593 9.01816 15.5561C10.7208 15.5126 12.1368 16.1104 13.3804 17.276C13.4297 17.3232 13.479 17.3704 13.5299 17.419C13.5737 17.4587 13.6176 17.4984 13.6628 17.5393C15.0114 18.8033 15.7626 20.6177 16.1779 22.384C16.1887 22.427 16.1996 22.47 16.2107 22.5143C16.5812 24.0248 16.5092 25.8538 16.1117 27.3491C16.0936 27.418 16.0936 27.418 16.0752 27.4882C15.6324 29.1083 14.6347 30.6835 13.1989 31.5859C12.2532 32.1133 11.3017 32.2851 10.2405 32.4134C10.0237 32.4399 9.80691 32.4667 9.59017 32.4941C9.53737 32.5007 9.48456 32.5073 9.43016 32.5142C8.99341 32.5709 8.56309 32.6496 8.13161 32.7374C6.70855 32.9866 5.28402 32.454 4.12942 31.6521C3.87542 31.4657 3.63619 31.2659 3.40122 31.0563C3.35816 31.018 3.31509 30.9797 3.27073 30.9403C1.42333 29.2845 0.17778 27.0205 0.0165159 24.5023C0.00122967 24.159 -0.000707869 23.8158 0.000180014 23.4722C0.000216015 23.4197 0.000252017 23.3672 0.000289109 23.3131C0.00287201 22.4926 0.0514202 21.7177 0.289806 20.9276C0.303993 20.8789 0.318181 20.8301 0.332798 20.7799C0.635073 19.7668 1.12425 18.8354 1.87861 18.081C1.88539 17.9707 1.8876 17.8601 1.888 17.7496C1.88848 17.6784 1.88896 17.6072 1.88945 17.5338C1.88972 17.4557 1.88998 17.3775 1.89025 17.297C1.89156 17.1304 1.89296 16.9638 1.89444 16.7972C1.8948 16.7537 1.89516 16.7102 1.89553 16.6654C1.90892 15.0949 1.93121 13.5413 2.20961 11.9906C2.223 11.9148 2.23639 11.839 2.25018 11.7609C2.76243 8.97214 3.87116 6.29659 5.78443 4.17896C5.83683 4.11863 5.88922 4.05829 5.94321 3.99613C6.24451 3.65216 6.55557 3.34232 6.90983 3.05355C6.97495 2.99919 7.04006 2.94484 7.10714 2.88883C11.5702 -0.775677 19.0899 -1.20864 25.3756 3.0701Z" fill="#D9D9D9"/>
<path d="M28.9557 12.3249C31.0454 13.6898 32.1365 15.9821 32.6619 18.3458C32.6885 18.4644 32.6885 18.4644 32.7157 18.5855C33.1049 20.7507 32.6841 23.2744 31.4622 25.1106C30.6393 26.2607 29.5517 27.1662 28.1328 27.416C27.706 27.4846 27.2777 27.5401 26.849 27.595C26.6364 27.6225 26.424 27.6516 26.2116 27.6804C25.9785 27.7119 25.7453 27.7426 25.5121 27.7731C25.3982 27.788 25.2843 27.8031 25.1705 27.8185C23.3478 28.0627 21.6731 27.957 20.15 26.8194C19.9213 26.6287 19.7028 26.4298 19.488 26.2236C19.432 26.1703 19.3761 26.1171 19.3184 26.0622C19.2651 26.0062 19.2119 25.9503 19.157 25.8926C19.1145 25.849 19.072 25.8054 19.0282 25.7604C17.1368 23.7536 16.559 21.0699 16.626 18.3941C16.6433 17.8549 16.7086 17.3456 16.84 16.8231C16.8507 16.7801 16.8613 16.737 16.8723 16.6926C17.1506 15.6036 17.6356 14.5708 18.3626 13.7117C18.4046 13.6591 18.4466 13.6064 18.4898 13.5522C19.5592 12.2641 21.0111 11.8896 22.6036 11.7216C22.7068 11.7103 22.81 11.6989 22.9132 11.6875C23.3462 11.6399 23.7793 11.5944 24.2125 11.5494C24.2708 11.5433 24.3291 11.5373 24.3891 11.531C24.4914 11.5205 24.5937 11.5103 24.696 11.5003C24.9389 11.4765 24.9389 11.4765 25.1774 11.4272C26.4974 11.1127 27.8444 11.6613 28.9557 12.3249Z" fill="#E1E1E1"/>
<path d="M8.76367 15.5655C10.4897 15.5024 11.9095 15.9651 13.2198 17.1253C13.3237 17.2227 13.4272 17.3206 13.5301 17.4191C13.5739 17.4587 13.6178 17.4984 13.663 17.5393C15.0116 18.8033 15.7628 20.6178 16.1781 22.3841C16.1889 22.4271 16.1998 22.47 16.2109 22.5143C16.5814 24.0248 16.5094 25.8539 16.1119 27.3491C16.0999 27.395 16.0878 27.441 16.0754 27.4883C15.6326 29.1083 14.6349 30.6835 13.1991 31.5859C12.2534 32.1133 11.3019 32.2852 10.2408 32.4134C10.0239 32.4399 9.80713 32.4668 9.59039 32.4941C9.51119 32.5041 9.51119 32.5041 9.43038 32.5142C8.99363 32.571 8.56332 32.6496 8.13184 32.7375C6.71126 32.9862 5.2813 32.4558 4.12965 31.6521C3.46246 31.1478 3.46246 31.1478 3.26904 30.8577C3.43333 30.9372 3.59199 31.0227 3.75132 31.1119C4.75316 31.6726 5.72044 31.8923 6.86455 31.648C8.00246 31.3096 8.83573 30.5396 9.42567 29.5337C9.6058 29.1913 9.75143 28.8358 9.88907 28.4745C9.91552 28.4064 9.94198 28.3383 9.96924 28.2682C10.2943 27.3662 10.388 26.462 10.3773 25.512C10.3768 25.4386 10.3768 25.4386 10.3764 25.3637C10.3634 23.6034 9.99425 21.96 9.15692 20.3998C9.093 20.2621 9.06528 20.1482 9.04295 19.9985C9.03508 19.9459 9.02721 19.8933 9.01911 19.839C9.01127 19.7818 9.00344 19.7247 8.99537 19.6657C8.98698 19.6051 8.97859 19.5445 8.96994 19.4821C8.79838 18.1802 8.73892 16.8777 8.76367 15.5655Z" fill="#E1E1E1"/>
<path d="M5.98314 19.6699C6.04867 19.7191 6.11421 19.7682 6.18174 19.8189C7.58261 21.0113 8.34606 23.0391 8.54633 24.8203C8.62406 25.8262 8.61408 26.8313 8.36635 27.8125C8.35499 27.8575 8.34363 27.9026 8.33192 27.9489C8.08833 28.8763 7.68266 29.6735 7.04234 30.3943C7.00164 30.4413 6.96093 30.4882 6.91899 30.5366C6.46191 31.0306 5.87534 31.3404 5.25493 31.586C5.19362 31.6242 5.19362 31.6242 5.13107 31.6633C4.88497 31.7594 4.69497 31.635 4.46027 31.5415C2.56567 30.7016 1.41172 29.1422 0.670628 27.2598C0.204201 26.0241 -0.00311924 24.7898 0.00028537 23.4723C0.000321371 23.4198 0.000357373 23.3672 0.000394465 23.3131C0.00297489 22.4935 0.0494656 21.7166 0.289912 20.9277C0.305155 20.8772 0.320398 20.8267 0.336103 20.7746C0.438815 20.444 0.558127 20.1236 0.687113 19.8023C0.707509 19.7417 0.727904 19.6811 0.748917 19.6187C0.942411 19.1482 1.37563 18.9773 1.81769 18.7827C3.28167 18.1743 4.8129 18.6853 5.98314 19.6699Z" fill="#CDCDCD"/>
<path d="M28.7558 12.2059C30.7063 13.3706 31.9224 15.4543 32.4879 17.6054C32.5491 17.8516 32.6066 18.0983 32.6617 18.346C32.6883 18.4646 32.6883 18.4646 32.7154 18.5857C33.1047 20.7509 32.6839 23.2746 31.462 25.1108C30.6334 26.2689 29.5421 27.1708 28.114 27.4185C27.6451 27.4932 27.1745 27.5535 26.7036 27.614C26.56 27.6332 26.4165 27.6525 26.2729 27.6719C26.0791 27.6979 25.8853 27.7233 25.6914 27.7486C25.5971 27.7609 25.5028 27.7733 25.4085 27.7858C25.2763 27.8033 25.144 27.82 25.0117 27.8367C24.9357 27.8464 24.8597 27.8562 24.7814 27.8662C24.6051 27.8775 24.4861 27.8686 24.3204 27.8126C24.3972 27.7893 24.474 27.766 24.5532 27.742C26.1374 27.2478 27.2386 26.3501 28.0354 24.8807C28.7353 23.5357 28.984 22.1385 28.9834 20.6382C28.9835 20.5865 28.9835 20.5348 28.9836 20.4815C28.978 18.2252 28.2574 15.9683 26.7698 14.2416C26.7176 14.1787 26.6654 14.1158 26.6116 14.051C25.5143 12.7785 24.0251 12.0263 22.3551 11.8832C22.2379 11.8745 22.1207 11.8661 22.0034 11.8584C22.0034 11.8365 22.0034 11.8147 22.0034 11.7922C22.0598 11.7862 22.0598 11.7862 22.1172 11.78C22.5082 11.7384 22.8991 11.6964 23.2899 11.6544C23.4358 11.6387 23.5817 11.6231 23.7276 11.6076C23.9373 11.5852 24.147 11.5626 24.3566 11.54C24.4545 11.5297 24.4545 11.5297 24.5543 11.5191C24.6153 11.5125 24.6762 11.5059 24.739 11.499C24.7925 11.4933 24.846 11.4876 24.9012 11.4817C26.3424 11.281 27.4674 11.4897 28.7558 12.2059Z" fill="#CDCDCD"/>
<path d="M18.0977 2.39165C18.7879 2.36664 19.4319 2.43629 20.1085 2.56128C20.1573 2.57007 20.2062 2.57886 20.2565 2.58792C21.0847 2.73778 21.888 2.93781 22.6895 3.19668C22.8602 3.251 23.0315 3.30166 23.2036 3.35129C25.5513 4.03771 27.3042 5.65201 28.668 7.63664C28.7533 7.75624 28.7533 7.75624 28.8601 7.85748C29.8497 8.85269 30.6095 11.7433 30.6095 13.1161C30.6614 13.1297 30.7133 13.1434 30.7667 13.1575C31.9305 13.5989 32.7488 14.5691 33.2782 15.6648C34.0316 17.4067 34.2581 19.6975 33.6547 21.5235C33.6315 21.5952 33.6083 21.6669 33.5844 21.7407C33.3122 22.4741 32.8388 23.1166 32.2645 23.6419C32.1895 23.417 32.2082 23.3586 32.2741 23.1379C32.2916 23.0777 32.3091 23.0174 32.3271 22.9553C32.346 22.8911 32.365 22.8268 32.3845 22.7606C33.1012 20.2032 32.7402 17.4842 31.4549 15.1616C31.1707 14.6654 30.8523 14.2106 30.4771 13.7781C30.4309 13.7231 30.3848 13.6682 30.3372 13.6116C29.3827 12.5062 27.9761 11.5656 26.479 11.4487C26.3151 11.4434 26.1519 11.4427 25.9879 11.4445C25.9297 11.4448 25.8716 11.4451 25.8116 11.4455C25.4373 11.4507 25.0828 11.4853 24.7154 11.5596C24.3229 11.6273 23.9234 11.6391 23.5261 11.6597C23.5301 11.6181 23.5341 11.5764 23.5382 11.5336C23.7309 9.50784 23.6939 7.64117 22.6655 5.83406C22.6295 5.76895 22.5935 5.70384 22.5563 5.63675C21.5942 4.01045 19.8686 2.98879 18.0977 2.45785C18.0977 2.436 18.0977 2.41415 18.0977 2.39165Z" fill="#C5C5C5"/>
<path d="M8.76367 16.6908C10.6988 17.7124 12.0859 19.6195 12.7791 21.6752C13.0679 22.6269 13.2704 23.6419 13.3315 24.6348C13.336 24.7038 13.336 24.7038 13.3405 24.7742C13.4506 26.8901 12.8788 29.1655 11.4779 30.7915C11.4388 30.84 11.3997 30.8886 11.3594 30.9386C10.7759 31.6387 10.0456 32.0752 9.22707 32.4465C9.14984 32.4819 9.07261 32.5173 8.99304 32.5538C7.84739 33.0097 6.46501 32.8114 5.35057 32.3497C4.61726 32.0273 3.72275 31.5382 3.26904 30.8577C3.43333 30.9371 3.59199 31.0226 3.75132 31.1119C4.75316 31.6726 5.72044 31.8922 6.86455 31.6479C8.00246 31.3095 8.83573 30.5396 9.42567 29.5337C9.6058 29.1912 9.75143 28.8357 9.88907 28.4744C9.91553 28.4063 9.94198 28.3383 9.96924 28.2681C10.2943 27.3661 10.388 26.4619 10.3773 25.512C10.3768 25.4386 10.3768 25.4386 10.3764 25.3636C10.3634 23.6034 9.99425 21.96 9.15692 20.3997C9.09301 20.262 9.06528 20.1482 9.04295 19.9985C9.03508 19.9458 9.02722 19.893 9.01911 19.8387C9.01127 19.7816 9.00344 19.7245 8.99537 19.6657C8.98698 19.6059 8.97859 19.5461 8.96994 19.4845C8.84735 18.5634 8.75636 17.6206 8.76367 16.6908Z" fill="#CDCDCD"/>
<path d="M10.6172 3.31827C10.5449 3.3902 10.5449 3.3902 10.4711 3.4636C8.64339 5.29898 7.72821 7.69565 7.08377 10.1659C7.06393 10.2416 7.04409 10.3174 7.02366 10.3955C6.8738 10.9815 6.75391 11.5703 6.64105 12.1643C6.41891 13.3186 6.11974 14.8099 5.12258 15.5653C4.86406 15.7148 4.62161 15.7663 4.32818 15.6977C3.79719 15.3812 3.58402 14.9174 3.42879 14.3429C3.3233 13.9106 3.30724 13.5013 3.31449 13.058C3.31523 12.9823 3.31598 12.9067 3.31675 12.8288C3.33153 11.9185 3.49361 11.0783 3.73238 10.2031C3.75055 10.134 3.76873 10.0649 3.78746 9.99363C4.3417 8.0348 5.39488 6.00781 6.77759 4.50987C6.85183 4.42756 6.85183 4.42756 6.92757 4.34359C7.93169 3.27988 9.22526 2.71518 10.6172 3.31827Z" fill="#E9E9E9"/>
<path d="M6.84598 17.7458C7.71642 18.3514 8.41809 19.0883 8.96206 20.0008C9.00575 20.0226 9.04945 20.0445 9.09446 20.067C9.20234 20.252 9.28455 20.4507 9.37167 20.6462C9.39801 20.7053 9.42435 20.7643 9.45148 20.8251C10.5115 23.2524 10.8801 26.115 9.90955 28.6317C9.37992 29.9201 8.55549 30.9837 7.27188 31.5858C6.79533 31.7789 6.32593 31.7963 5.81755 31.801C5.73786 31.8019 5.73786 31.8019 5.65657 31.8029C5.27111 31.8007 5.27111 31.8007 5.12245 31.652C5.28766 31.4565 5.45555 31.3918 5.69342 31.3045C6.09156 31.1441 6.39217 30.9434 6.71125 30.659C6.75042 30.626 6.78959 30.593 6.82995 30.559C7.90773 29.5798 8.43586 27.9444 8.50689 26.5223C8.53281 25.6093 8.49022 24.7343 8.30006 23.8404C8.28239 23.7558 8.26473 23.6711 8.24653 23.5839C7.84119 21.8833 6.85799 20.247 5.38854 19.2744C4.42004 18.6843 3.381 18.4332 2.25928 18.6851C1.84173 18.8038 1.46374 18.9985 1.08423 19.2064C1.41476 18.264 2.32286 17.7049 3.17523 17.2848C4.39594 16.7929 5.75831 17.0684 6.84598 17.7458Z" fill="#D9D9D9"/>
<path d="M23.7436 17.1181C24.6397 17.6274 25.188 18.4282 25.4886 19.4067C25.6019 19.8405 25.6111 20.2618 25.6073 20.7082C25.6068 20.7897 25.6064 20.8713 25.6059 20.9553C25.5862 22.0768 25.336 23.0578 24.5507 23.8931C24.0525 24.3362 23.5186 24.4579 22.8703 24.4501C22.1809 24.4031 21.641 24.0294 21.1677 23.5465C20.2491 22.4769 20.0916 21.0277 20.1499 19.6697C20.1773 19.3564 20.2218 19.0514 20.2823 18.7429C20.2929 18.6831 20.3035 18.6234 20.3144 18.5619C20.4413 18.0095 20.7972 17.622 21.2489 17.2937C22.0361 16.8038 22.8922 16.7101 23.7436 17.1181Z" fill="#E9E9E9"/>
<path d="M2.793 21.0268C3.044 21.2108 3.27055 21.4263 3.49974 21.6363C3.64276 21.7669 3.78788 21.8938 3.93496 22.0198C5.10702 23.0506 5.9419 24.2982 6.06992 25.884C6.1165 26.9361 5.82781 28.1474 5.12216 28.9576C4.75854 29.2757 4.49197 29.2969 4.0221 29.2902C3.40106 29.2306 2.95828 28.77 2.56275 28.3183C1.30417 26.7682 1.02374 24.7545 1.16954 22.8271C1.24487 22.164 1.43147 21.5018 1.87861 20.9937C2.17004 20.7726 2.48958 20.865 2.793 21.0268Z" fill="#E9E9E9"/>
</svg>
